<svg width="70" height="40" viewBox="0 0 70 40" fill="none" xmlns="http://www.w3.org/2000/svg">
<path d="M0 0H4.22917C6.125 0 6.78125 0.0727273 7.2917 0.290909C8.3125 0.8 8.9688 1.74545 8.9688 2.90909C8.9688 4 8.6042 4.58182 7.5104 5.09091C8.6771 5.45455 9.4792 6.54545 9.3333 7.78182C9.3333 9.6 7.875 10.8364 5.76042 10.8364H0V9.09091H0.80208V1.74545H0V0ZM3.13542 1.74545V4.36364H5.32292C6.125 4.43636 6.78125 3.85455 6.85417 3.12727V2.98182C6.85417 2.25455 6.125 1.74545 5.17708 1.74545H3.13542ZM3.13542 6.10909V9.09091H5.46875C6.34375 9.16364 7.1458 8.50909 7.1458 7.63636V7.56364C7.1458 6.61818 6.34375 6.03636 5.17708 6.03636L3.13542 6.10909ZM18.5208 8.14545C18.1562 9.96364 16.625 11.0545 14.6563 11.0545C12.3229 11.0545 10.6458 9.23636 10.6458 6.69091C10.6458 4.14545 12.3229 2.32727 14.6563 2.32727C15.8958 2.32727 17.1354 2.90909 17.8646 4C18.4479 4.94545 18.7396 5.96364 18.6667 7.05455H12.6875C12.9062 9.23636 14.2917 9.30909 14.6563 9.30909C15.4583 9.38182 16.1146 8.8 16.3333 8.07273L18.5208 8.14545ZM16.4062 5.74545C16.4062 4.8 15.6042 4.07273 14.7292 4.07273H14.6563C13.7083 4.07273 12.9792 4.8 12.7604 5.67273L16.4062 5.74545ZM5.25 19.1273H9.0417V24.5091H7.8021V22.8364C7.5833 23.2 7.2917 23.5636 7 23.8545C6.27083 24.4364 5.39583 24.8 4.52083 24.8C1.96875 24.8 0 22.3273 0 19.1273C0 15.9273 1.96875 13.3818 4.44792 13.3818C5.83333 13.3091 7.0729 14.1091 7.7292 15.2727V13.6H8.8958V17.0909H7.6562C7.5104 16.5818 7.2917 16.1455 7.0729 15.7818C6.48958 15.0545 5.61458 14.6182 4.73958 14.5455C3.42708 14.5455 1.38542 15.7091 1.38542 19.0545C1.38542 21.6727 2.84375 23.6364 4.73958 23.6364C6.19792 23.5636 7.4375 22.4727 7.7292 21.0182C7.8021 20.7273 7.8021 20.4364 7.8021 20.1455H5.17708L5.25 19.1273ZM18.375 24.5818H15.9688V23.1273C15.3854 24.1455 14.2917 24.8 13.125 24.8C11.7396 24.9455 10.5 23.7818 10.4271 22.4727V22.3273C10.4271 20.7273 11.8125 20 15.0938 19.6364L15.8958 19.5636V18.7636C15.8958 17.8182 15.1667 17.2364 14 17.2364C12.8333 17.2364 12.25 17.6 12.0312 18.6909H10.7917C10.9375 18.0364 11.2292 17.4545 11.7396 17.0182C12.3229 16.5091 13.1979 16.2909 13.9271 16.2909C15.6042 16.2909 17.0625 17.0909 17.0625 19.1273V23.7091H18.2292L18.375 24.5818ZM15.9688 20.2909L15.2396 20.3636C12.6875 20.7273 11.8854 21.1636 11.8854 22.1818C11.9583 23.1273 12.6875 23.7818 13.5625 23.7818C14.8021 23.7091 15.8229 22.8364 15.9688 21.6V20.2909ZM21.875 17.8182C22.2396 17.2364 22.9688 16.1455 24.5 16.1455C25.5938 16.1455 26.1771 16.7273 26.4688 17.8182C26.6875 17.4545 26.9063 17.0909 27.2708 16.8C27.7813 16.3636 28.3646 16.0727 29.0208 16.0727C30.2604 16.0727 30.9896 16.8727 30.9896 18.3273V23.5636H32.1562V24.5818H29.8229V18.8364C29.8229 17.6727 29.4583 17.1636 28.5833 17.1636C27.125 17.1636 26.3958 18.8364 26.3958 19.4909V23.6364H27.6354V24.6545H25.2292V18.6909C25.2292 17.6727 24.8646 17.2364 23.9896 17.2364C22.75 17.2364 21.8021 18.8364 21.8021 19.5636V23.7091H23.0417V24.7273H19.4688V23.7091H20.7083V17.3091H19.4688V16.2909H21.875V17.8182ZM33.3958 13.1636H35.7292V17.9636C36.0938 17.3818 36.9688 16.1455 38.4271 16.1455C40.3229 16.1455 41.7812 18.0364 41.7812 20.5091C41.7812 22.7636 40.25 24.6545 38.4271 24.6545C36.9688 24.6545 36.2396 23.6364 35.7292 22.9818V24.5091H33.3229V23.4909H34.4896V14.1818H33.3958V13.1636ZM35.7292 21.0182C35.7292 22.4 36.75 23.4909 38.1354 23.6364C39.5938 23.6364 40.4688 22.4 40.4688 20.3636C40.4688 18.3273 39.5208 17.0909 38.1354 17.0909C36.8958 17.0909 35.7292 18.4 35.7292 19.6364V21.0182ZM42.5104 13.1636H44.9167V23.5636H46.0104V24.5818H42.4375V23.5636H43.6771V14.1091H42.5104V13.1636ZM54.1042 22.2545C53.9583 22.7636 53.7396 23.1273 53.4479 23.4909C53.1312 23.8799 52.7308 24.193 52.2765 24.407C51.8221 24.621 51.3254 24.7305 50.8229 24.7273C48.5625 24.7273 46.9583 22.9818 46.9583 20.4364C46.9583 18.0364 48.5625 16.1455 50.6042 16.1455C52.6458 16.1455 54.3229 17.7455 54.3229 20.6545H48.2708C48.4167 21.8909 48.6354 22.5455 49.2188 23.1273C49.6562 23.4909 50.2396 23.7091 50.75 23.7091C51.6979 23.7091 52.2813 23.2727 52.7188 22.2545H54.1042ZM52.8646 19.7091C52.8646 18.9091 52.5729 18.2545 52.0625 17.6C51.6979 17.2364 51.1875 17.0182 50.6771 17.0909C49.6562 17.1636 48.7083 17.8909 48.4896 18.8364C48.4167 19.1273 48.3438 19.4182 48.3438 19.6364L52.8646 19.7091ZM3.79167 27.2727H6.41667L9.4792 36.3636H10.2813V38.1091H7.8021L7.0729 35.7818H3.28125L2.55208 38.1091H0V36.3636H0.80208L3.79167 27.2727ZM5.17708 29.3091L3.71875 34.1818H6.5625L5.17708 29.3091ZM10.2813 29.8909H13.6354V31.4909H12.8333L14 36.3636L15.3854 29.8909H17.5729L18.9583 36.2909L20.0521 31.4909H19.1771V29.8909H22.5312V31.4909H21.8021L20.0521 38.1091H17.8646L16.4792 32.3636L15.1667 38.1091H12.9792L10.9375 31.4909H10.2083L10.2813 29.8909ZM30.2604 36.5818H30.9896V38.1818H28.3646V37.1636C27.7813 37.9636 26.8333 38.3273 25.8125 38.3273C24.1354 38.3273 22.8958 37.2364 22.8958 35.7091C22.8958 33.3091 25.6667 33.0182 28.2917 32.8C28.2917 31.5636 27.8542 31.1273 26.8333 31.1273C25.8125 31.1273 25.375 31.6364 25.375 32.3636V32.4364H23.3333C23.4792 30.7636 24.7917 29.7455 26.7604 29.7455C29.0938 29.7455 30.3333 30.7636 30.3333 32.6545L30.2604 36.5818ZM28.2917 34.2545C26.3229 34.4 25.0833 34.6182 25.0833 35.7091C25.0833 36.3636 25.6667 36.8 26.4688 36.8C27.4896 36.8 28.2917 36 28.3646 35.0545V34.9818L28.2917 34.2545ZM34.9271 31.2C35.5104 30.1818 36.0938 29.7455 37.0417 29.7455C37.4062 29.7455 37.625 29.8182 37.9896 29.8909V31.7818C37.625 31.7091 37.3333 31.6364 36.9688 31.6364C35.9479 31.5636 35 32.3636 35 33.3091V36.5091H36.0208V38.1091H32.0833V36.5091H32.8854V31.4182H32.0833V29.8182H34.9271V31.2ZM46.3021 35.4182C45.9375 37.2364 44.4062 38.3273 42.4375 38.3273C40.1042 38.3273 38.4271 36.5091 38.4271 33.9636C38.4271 31.4182 40.1042 29.6 42.4375 29.6C43.6771 29.6 44.9167 30.1818 45.6458 31.2727C46.2292 32.2182 46.5208 33.2364 46.4479 34.3273H40.4688C40.6875 36.5091 42.0729 36.5818 42.4375 36.5818C43.2396 36.6545 43.8958 36.0727 44.1146 35.3455L46.3021 35.4182ZM44.1875 33.0182C44.1875 32.0727 43.3854 31.3455 42.5104 31.3455H42.4375C41.4896 31.3455 40.7604 32.0727 40.5417 32.9455L44.1875 33.0182ZM67.5938 22.4C67.8854 22.4 68.1042 22.4727 68.25 22.6182C68.3958 22.7636 68.4688 22.9091 68.4688 23.1273C68.4688 23.2727 68.3958 23.4182 68.3229 23.5636C68.25 23.7091 68.1042 23.7818 67.9583 23.8545C68.0312 23.8545 68.1042 23.9273 68.1771 23.9273L68.3229 24.0727C68.3958 24.1455 68.3958 24.1455 68.3958 24.2182V24.8727C68.3958 24.9455 68.3958 25.0182 68.4688 25.0909C68.4688 25.1636 68.5417 25.2364 68.5417 25.2364H68.1042C68.1042 25.2364 68.0313 25.1636 68.0313 25.0909V24.9455V24.7273V24.5091C68.0313 24.4364 68.0312 24.3636 67.9583 24.2909C67.9583 24.2182 67.8854 24.1455 67.8854 24.1455C67.8854 24.0727 67.8125 24.0727 67.7396 24C67.6667 24 67.5938 23.9273 67.5208 23.9273H66.6458V25.0909H66.2812V22.3273L67.5938 22.4ZM67.6667 23.6364C67.7396 23.6364 67.8125 23.5636 67.8854 23.5636L68.0313 23.4182C68.0313 23.3455 68.1042 23.2727 68.1042 23.2C68.1042 23.0545 68.0312 22.9091 67.9583 22.8364C67.8854 22.7636 67.7396 22.6909 67.5938 22.6909H66.6458V23.6364H67.4479C67.4479 23.7091 67.5938 23.7091 67.6667 23.6364ZM67.3021 26.6182C65.8438 26.6182 64.6042 25.3818 64.6042 23.9273C64.6042 22.4727 65.8438 21.2364 67.3021 21.2364C68.7604 21.2364 70 22.4727 70 23.9273C70 25.3818 68.7604 26.6182 67.3021 26.6182ZM67.3021 21.6727C66.0625 21.6727 65.0417 22.6909 65.0417 23.9273C65.0417 25.1636 66.0625 26.1818 67.3021 26.1818C68.5417 26.1818 69.5625 25.1636 69.5625 23.9273C69.5625 22.6909 68.5417 21.6727 67.3021 21.6727ZM47.4688 37.0909H48.4896V38.1091H47.4688V37.0909ZM49.4375 35.1273C49.4375 33.3091 50.5312 32.0727 52.2083 32.0727C53.8125 32.0727 54.9792 33.3818 54.9792 35.1273C54.9792 36.9455 53.8125 38.2545 52.2083 38.2545C50.5312 38.2545 49.4375 36.9455 49.4375 35.1273ZM52.1354 37.5273C53.3021 37.5273 53.9583 36.6545 53.9583 35.1273C53.9583 33.7455 53.2292 32.8 52.1354 32.8C51.0417 32.8 50.3854 33.6727 50.3854 35.1273C50.3854 36.6545 51.0417 37.5273 52.1354 37.5273ZM57.2396 33.5273C57.5312 32.9455 57.6771 32.7273 57.9688 32.4364C58.2604 32.1455 58.6979 32 59.0625 32C59.2083 32 59.4271 32 59.7188 32.0727V32.9455C59.4271 32.8727 59.2083 32.8727 59.0625 32.8727C57.4583 32.8727 57.2396 34.5455 57.2396 34.6182V37.3818H58.2604V38.1091H55.5625V37.3818H56.4375V32.8H55.5625V32.0727H57.3125C57.2396 32.1455 57.2396 33.5273 57.2396 33.5273ZM64.3854 36.6545C63.875 37.3818 63.2188 37.6727 62.5625 37.6727C61.1042 37.6727 60.1562 36.5091 60.1562 34.8364C60.1562 33.2364 61.1042 32.0727 62.4896 32.0727C63.5833 32.0727 64.0938 32.8 64.3854 33.2364V32.1455H66.0625V32.8727H65.2604V37.7455C65.2604 39.2 64.3125 40 62.7083 40C61.6875 40 60.8854 39.5636 60.4479 38.9091C60.375 38.7636 60.3021 38.6182 60.2292 38.3273H61.1771C61.5417 39.0545 61.9792 39.3455 62.7812 39.3455C63.8021 39.3455 64.3854 38.8364 64.3854 37.9636V36.6545ZM64.3854 34.3273C64.3854 33.6727 63.5833 32.7273 62.7083 32.7273C61.7604 32.7273 61.1042 33.5273 61.1042 34.8364C61.1042 36.1455 61.6875 36.9455 62.7083 36.9455C63.5833 36.9455 64.3854 36.0727 64.3854 35.4182V34.3273Z" fill="#A1BADC"/>
</svg>
