<svg width="149" height="29" viewBox="0 0 149 29" fill="none" xmlns="http://www.w3.org/2000/svg">
<g clip-path="url(#clip0_118_834)">
<path fill-rule="evenodd" clip-rule="evenodd" d="M83.0065 8.87153C87.0192 4.85876 93.6342 4.96736 97.7811 9.11462C101.928 13.2619 102.037 19.8764 98.0242 23.8892C94.0114 27.9024 87.3968 27.7934 83.2495 23.6461C79.1023 19.4993 78.9933 12.8843 83.0065 8.87153Z" fill="white"/>
<path fill-rule="evenodd" clip-rule="evenodd" d="M96.9563 24.0087L96.8515 24.1008L96.5877 24.3231L96.474 24.4151L96.2058 24.6209L96.1011 24.6964L95.799 24.9013L95.7197 24.9518C95.606 25.0273 95.4889 25.0986 95.3718 25.166L95.3294 25.191C93.974 25.9614 92.4523 26.3929 90.8941 26.4485C90.9798 24.178 91.8719 22.0127 93.4098 20.3404L97.0106 23.9417L96.9563 24.0087ZM83.5409 23.7402L90.1602 17.0955L92.8103 19.7452C91.1185 21.5783 90.1449 23.9599 90.0685 26.4527C87.6398 26.3509 85.3265 25.3896 83.5409 23.7402ZM88.5676 14.2952L91.2509 12.9364L93.6948 15.3557L92.3572 18.0848L88.5676 14.2952ZM82.9623 23.1407C81.3065 21.3547 80.3405 19.038 80.2375 16.6047C82.7302 16.5279 85.1118 15.5543 86.9449 13.8629L89.5942 16.5126L82.9623 23.1407ZM81.5118 11.3391L81.5369 11.2976C81.6043 11.18 81.6752 11.0625 81.7507 10.9493L81.8007 10.8695L82.0065 10.5679L82.082 10.4631C82.1495 10.371 82.2207 10.2828 82.2878 10.1946L82.3802 10.0817L82.6021 9.81742L82.6942 9.71264L82.7446 9.66258L86.3459 13.2634C84.6728 14.8004 82.5075 15.6921 80.2379 15.7791C80.2875 14.2201 80.7143 12.6967 81.4821 11.3391H81.5118ZM88.5214 6.20809L91.1249 8.72334L90.9153 12.1609L87.9385 13.666L84.1658 9.89294L83.9809 8.40898C85.2637 7.2869 86.8194 6.52329 88.4921 6.19536L88.5214 6.20809ZM93.0576 6.42147C93.4098 6.52244 93.7491 6.64377 94.0805 6.77401L91.6153 8.05645L89.5569 6.06936C90.7252 5.98367 91.9004 6.10288 93.028 6.42147H93.0576ZM95.0532 7.22242C95.9568 7.69883 96.7858 8.30462 97.5137 9.02072C98.2447 9.74912 98.8662 10.5793 99.3587 11.4859L97.7865 14.601L94.3528 14.8484L91.7451 12.2741L91.9547 8.83237L95.0532 7.22242ZM99.7944 12.4502C100.36 13.7954 100.626 15.2475 100.574 16.7056V16.7349V16.9614L98.5663 14.9281L99.7944 12.4502ZM100.436 18.005C100.394 18.2481 100.343 18.4874 100.285 18.7305C99.9276 20.1508 99.2493 21.4701 98.302 22.5876L96.6543 22.3988L92.9694 18.7139L94.4572 15.6786L97.8866 15.427L100.436 18.005ZM98.2141 23.9582L98.1887 23.9332C98.3983 23.7359 98.6083 23.5136 98.797 23.3087V23.2875C99.8941 22.0479 100.676 20.5627 101.078 18.957C101.155 18.6528 101.217 18.3448 101.262 18.0343C101.274 18.0093 101.28 17.9821 101.283 17.9546C101.283 17.8544 101.304 17.7577 101.316 17.6572C101.329 17.5566 101.342 17.4599 101.35 17.3636C101.35 17.2003 101.379 17.0408 101.387 16.8817V16.6051V16.0812V15.9717C101.357 15.0554 101.209 14.1467 100.947 13.2677V13.2469C100.885 13.0288 100.813 12.8277 100.734 12.597V12.5592C100.577 12.129 100.394 11.7091 100.184 11.3014C100.184 11.3014 100.184 11.2806 100.164 11.2721C99.6158 10.2234 98.9086 9.26635 98.0674 8.43401C97.2274 7.6055 96.2627 6.914 95.2085 6.38414C95.1037 6.32942 94.9989 6.28742 94.8899 6.23693L94.567 6.09058C94.3863 6.01082 94.2069 5.94379 94.0219 5.87676L93.9006 5.83052C92.1791 5.22048 90.3311 5.05758 88.5299 5.35666L88.4416 5.38211C86.5071 5.71683 84.7063 6.58862 83.2431 7.89736L83.2138 7.92239C82.9368 8.1693 82.6751 8.43274 82.4299 8.71061L82.3756 8.76109C82.2496 8.88667 82.1282 9.0169 82.0065 9.15096L81.9187 9.25574C81.8304 9.35629 81.7426 9.45259 81.6629 9.5578L81.5789 9.65791L81.3358 9.98118L81.2768 10.0605C81.1932 10.178 81.1097 10.2998 81.0295 10.4211L81.0006 10.4673C80.9124 10.6014 80.8284 10.7397 80.7487 10.8865C79.8192 12.4969 79.3343 14.3261 79.3439 16.1855V16.2402V16.3365C79.4747 22.3725 84.3631 27.2197 90.3999 27.2996H90.4669C92.3267 27.3101 94.1555 26.8252 95.7659 25.8953C95.9085 25.8168 96.048 25.7332 96.1855 25.6437L96.2313 25.6144L96.5919 25.3671L96.6712 25.3081L96.9898 25.065L97.0946 24.9811C97.1994 24.9013 97.2961 24.8135 97.3967 24.7252L97.5014 24.6374C97.6359 24.5157 97.7611 24.3943 97.8913 24.2683C98.0215 24.1428 98.1094 24.0673 98.2141 23.9582Z" fill="#000011"/>
<path fill-rule="evenodd" clip-rule="evenodd" d="M146.556 7.07759V7.64775H146.904C147.005 7.64775 147.298 7.64775 147.298 7.35037C147.298 7.05256 147.039 7.07759 146.938 7.07759H146.556ZM146.976 6.88075C147.189 6.88075 147.563 6.95202 147.563 7.33764C147.56 7.51879 147.442 7.67745 147.269 7.73175C147.436 7.77926 147.546 7.94005 147.529 8.11313C147.523 8.25482 147.54 8.39609 147.579 8.53227H147.32C147.286 8.40797 147.269 8.27943 147.269 8.15089C147.269 7.99604 147.231 7.84884 146.884 7.84884H146.552V8.53227H146.284V6.88881L146.976 6.88075ZM146.904 6.46119C146.21 6.44507 145.634 6.99487 145.618 7.68933C145.602 8.38379 146.152 8.95989 146.846 8.97601C147.54 8.99213 148.116 8.44233 148.132 7.74787C148.133 7.73854 148.133 7.72878 148.133 7.71902C148.149 7.04111 147.612 6.47773 146.934 6.46161C146.924 6.46161 146.914 6.46119 146.904 6.46119ZM146.904 6.25586C147.706 6.26053 148.351 6.91384 148.347 7.71478C148.342 8.51615 147.689 9.16183 146.888 9.15673C146.09 9.15249 145.445 8.50427 145.445 7.7063C145.441 6.91002 146.083 6.26053 146.879 6.25586H146.904Z" fill="white"/>
<path fill-rule="evenodd" clip-rule="evenodd" d="M103.331 20.7148C101.731 20.7123 100.432 22.0075 100.43 23.6072C100.427 25.2074 101.723 26.5064 103.323 26.5085C104.922 26.5111 106.221 25.2159 106.223 23.6157V23.6119C106.223 22.0134 104.929 20.717 103.331 20.7148Z" fill="white"/>
<path fill-rule="evenodd" clip-rule="evenodd" d="M112.665 11.6717H115.764L107.71 22.417V26.5044H123.641V21.0544H115.897L123.641 10.9717V6.23438H107.71C107.71 6.23438 106.247 11.6717 112.665 11.6717Z" fill="white"/>
<path fill-rule="evenodd" clip-rule="evenodd" d="M134.667 21.0898C132.071 21.2544 129.835 19.2839 129.67 16.6889C129.664 16.5909 129.661 16.4929 129.661 16.3945V16.1679C129.794 13.5759 132.003 11.582 134.594 11.7148C137.186 11.8476 139.181 14.0565 139.048 16.649C138.926 19.031 137.038 20.9439 134.658 21.0983L134.667 21.0898ZM138.532 6.19432V7.40167C137.116 6.63424 135.531 6.23335 133.92 6.23632C128.47 6.23632 124.043 10.7684 124.043 16.3652C124.043 21.962 128.466 26.4937 133.92 26.4937C135.531 26.4966 137.117 26.0945 138.532 25.3241V26.5064H144.33V6.12305L138.54 6.21129L138.532 6.19432Z" fill="white"/>
<path fill-rule="evenodd" clip-rule="evenodd" d="M85.32 9.13211L84.8164 8.46141C84.9046 8.39438 87.0135 6.82643 88.4181 6.73438L88.4762 7.57265C87.5124 7.62738 85.8689 8.71298 85.32 9.13211Z" fill="#000011"/>
<path fill-rule="evenodd" clip-rule="evenodd" d="M97.2734 23.0996L97.7935 23.1666L97.5331 23.4267L97.2734 23.0996Z" fill="white"/>
<path fill-rule="evenodd" clip-rule="evenodd" d="M83.5924 9.41854L83.5296 8.89844L83.2695 9.15849L83.5924 9.41854Z" fill="white"/>
<path fill-rule="evenodd" clip-rule="evenodd" d="M116.332 17.2714L120.688 11.3887L121.362 11.888L117.006 17.7703L116.332 17.2714Z" fill="#000011"/>
<mask id="mask0_118_834" style="mask-type:luminance" maskUnits="userSpaceOnUse" x="0" y="0" width="149" height="29">
<path fill-rule="evenodd" clip-rule="evenodd" d="M0 28.1098H148.347V0H0V28.1098Z" fill="white"/>
</mask>
<g mask="url(#mask0_118_834)">
<path fill-rule="evenodd" clip-rule="evenodd" d="M121.805 10.2255H122.643V7.49219H121.805V10.2255Z" fill="#000011"/>
</g>
<mask id="mask1_118_834" style="mask-type:luminance" maskUnits="userSpaceOnUse" x="0" y="0" width="149" height="29">
<path fill-rule="evenodd" clip-rule="evenodd" d="M0 28.1098H148.347V0H0V28.1098Z" fill="white"/>
</mask>
<g mask="url(#mask1_118_834)">
<path fill-rule="evenodd" clip-rule="evenodd" d="M81.6562 11.67L82.355 10.5742L83.0617 11.0247L82.363 12.1205L81.6562 11.67Z" fill="#000011"/>
</g>
<mask id="mask2_118_834" style="mask-type:luminance" maskUnits="userSpaceOnUse" x="0" y="0" width="149" height="29">
<path fill-rule="evenodd" clip-rule="evenodd" d="M0 28.1098H148.347V0H0V28.1098Z" fill="white"/>
</mask>
<g mask="url(#mask2_118_834)">
<path fill-rule="evenodd" clip-rule="evenodd" d="M56.4326 20.9707C54.8328 20.9686 53.5338 22.2633 53.5313 23.8635C53.5287 25.4633 54.8239 26.7623 56.4236 26.7648C58.0238 26.7669 59.3228 25.4718 59.3249 23.872V23.8678C59.3249 22.2697 58.031 20.9733 56.4326 20.9707Z" fill="white"/>
</g>
<mask id="mask3_118_834" style="mask-type:luminance" maskUnits="userSpaceOnUse" x="0" y="0" width="149" height="29">
<path fill-rule="evenodd" clip-rule="evenodd" d="M0 28.1098H148.347V0H0V28.1098Z" fill="white"/>
</mask>
<g mask="url(#mask3_118_834)">
<path fill-rule="evenodd" clip-rule="evenodd" d="M46.8064 12.2837V26.5963L51.5603 26.7308L52.3315 26.6761V11.9821H56.2934V7.63841H52.3277C52.4113 7.72241 52.3527 1.88672 52.3527 1.88672L46.8017 2.18835V7.94046H42.4584C42.4584 7.94046 42.2531 12.4055 46.8064 12.2837Z" fill="white"/>
</g>
<mask id="mask4_118_834" style="mask-type:luminance" maskUnits="userSpaceOnUse" x="0" y="0" width="149" height="29">
<path fill-rule="evenodd" clip-rule="evenodd" d="M0 28.1098H148.347V0H0V28.1098Z" fill="white"/>
</mask>
<g mask="url(#mask4_118_834)">
<path fill-rule="evenodd" clip-rule="evenodd" d="M29.0704 14.7506C29.8294 12.3193 32.4159 10.9639 34.8467 11.7229C36.2916 12.1742 37.4231 13.3057 37.8744 14.7506H29.0704ZM43.6181 16.6371C43.6134 11.0386 39.0712 6.50358 33.4731 6.50782C27.8745 6.51248 23.3391 11.0543 23.3438 16.6528C23.348 22.2518 27.8902 26.7868 33.4888 26.7821C37.6144 26.7792 41.3264 24.2758 42.8757 20.4522H36.6756C35.8313 21.31 34.68 21.7957 33.4769 21.8021C31.6446 21.7677 29.9986 20.6758 29.255 19.0018H43.3372C43.5209 18.2267 43.6155 17.4334 43.6181 16.6371Z" fill="white"/>
</g>
<mask id="mask5_118_834" style="mask-type:luminance" maskUnits="userSpaceOnUse" x="0" y="0" width="149" height="29">
<path fill-rule="evenodd" clip-rule="evenodd" d="M0 28.1098H148.347V0H0V28.1098Z" fill="white"/>
</mask>
<g mask="url(#mask5_118_834)">
<path fill-rule="evenodd" clip-rule="evenodd" d="M16.6931 16.6353C16.6286 19.2116 14.4875 21.2475 11.9116 21.1826C9.33484 21.1176 7.29897 18.977 7.36387 16.4007C7.42878 13.8243 9.56986 11.7884 12.1458 11.8533C14.6313 11.9157 16.6311 13.9155 16.6931 16.4007V16.6268V16.6353ZM12.4169 6.49407C10.8065 6.4911 9.22115 6.89199 7.8055 7.65942V2.15039C4.60809 2.15039 2.01562 4.74285 2.01562 7.94026V26.7641H7.8055V25.5818C9.2203 26.3522 10.8061 26.7544 12.4169 26.7514C17.8673 26.7514 22.2942 22.2151 22.2942 16.6225C22.2942 11.0303 17.8712 6.49407 12.4169 6.49407Z" fill="white"/>
</g>
<mask id="mask6_118_834" style="mask-type:luminance" maskUnits="userSpaceOnUse" x="0" y="0" width="149" height="29">
<path fill-rule="evenodd" clip-rule="evenodd" d="M0 28.1098H148.347V0H0V28.1098Z" fill="white"/>
</mask>
<g mask="url(#mask6_118_834)">
<path fill-rule="evenodd" clip-rule="evenodd" d="M78.6528 15.1846C77.8506 9.63906 72.7047 5.79385 67.1592 6.59607C61.6137 7.39871 57.7685 12.5446 58.5707 18.0901C59.3733 23.6352 64.5192 27.4804 70.0643 26.6782C74.514 26.0346 78.0088 22.5394 78.6528 18.0901H73.0857C72.2817 20.5583 69.6299 21.9073 67.1617 21.1043C64.694 20.3008 63.3445 17.6485 64.148 15.1803C64.7771 13.2471 66.5788 11.9375 68.6122 11.9354C69.1212 11.9341 69.6269 12.0164 70.1088 12.1789C70.8126 12.3652 71.4367 12.7758 71.8868 13.3485C73.1145 15 75.1567 16.1319 78.6528 15.1846Z" fill="white"/>
</g>
<mask id="mask7_118_834" style="mask-type:luminance" maskUnits="userSpaceOnUse" x="0" y="0" width="149" height="29">
<path fill-rule="evenodd" clip-rule="evenodd" d="M0 28.1098H148.347V0H0V28.1098Z" fill="white"/>
</mask>
<g mask="url(#mask7_118_834)">
<path fill-rule="evenodd" clip-rule="evenodd" d="M25.3426 16.4015H24.5039C24.5039 16.3387 24.5671 10.0711 30.0677 8.17188L30.3396 8.96433C25.4092 10.6663 25.3426 16.1665 25.3426 16.4015Z" fill="#000011"/>
</g>
<mask id="mask8_118_834" style="mask-type:luminance" maskUnits="userSpaceOnUse" x="0" y="0" width="149" height="29">
<path fill-rule="evenodd" clip-rule="evenodd" d="M0 28.1098H148.347V0H0V28.1098Z" fill="white"/>
</mask>
<g mask="url(#mask8_118_834)">
<path fill-rule="evenodd" clip-rule="evenodd" d="M68.5194 26.109C66.4772 26.1073 64.4973 25.4009 62.9141 24.1092L63.4346 23.4512C64.9436 24.684 66.8484 25.3288 68.796 25.2664L68.8257 26.1047L68.5194 26.109Z" fill="#000011"/>
</g>
<mask id="mask9_118_834" style="mask-type:luminance" maskUnits="userSpaceOnUse" x="0" y="0" width="149" height="29">
<path fill-rule="evenodd" clip-rule="evenodd" d="M0 28.1098H148.347V0H0V28.1098Z" fill="white"/>
</mask>
<g mask="url(#mask9_118_834)">
<path fill-rule="evenodd" clip-rule="evenodd" d="M61.6766 22.9671C61.0483 22.3062 60.5045 21.5697 60.0586 20.7747L60.8044 20.3887C61.2155 21.1145 61.7139 21.7878 62.2883 22.3927L61.6766 22.9671Z" fill="#000011"/>
</g>
<mask id="mask10_118_834" style="mask-type:luminance" maskUnits="userSpaceOnUse" x="0" y="0" width="149" height="29">
<path fill-rule="evenodd" clip-rule="evenodd" d="M0 28.1098H148.347V0H0V28.1098Z" fill="white"/>
</mask>
<g mask="url(#mask10_118_834)">
<path fill-rule="evenodd" clip-rule="evenodd" d="M129.443 16.3952H129.023V16.1602L129.443 16.1856C129.447 16.2569 129.443 16.3197 129.443 16.3952Z" fill="white"/>
</g>
<mask id="mask11_118_834" style="mask-type:luminance" maskUnits="userSpaceOnUse" x="0" y="0" width="149" height="29">
<path fill-rule="evenodd" clip-rule="evenodd" d="M0 28.1098H148.347V0H0V28.1098Z" fill="white"/>
</mask>
<g mask="url(#mask11_118_834)">
<path fill-rule="evenodd" clip-rule="evenodd" d="M134.97 5.31148C134.151 5.2033 133.324 5.18209 132.501 5.24869L132.434 4.40999C133.314 4.34042 134.199 4.36417 135.074 4.48126L134.97 5.31148Z" fill="white"/>
</g>
<mask id="mask12_118_834" style="mask-type:luminance" maskUnits="userSpaceOnUse" x="0" y="0" width="149" height="29">
<path fill-rule="evenodd" clip-rule="evenodd" d="M0 28.1098H148.347V0H0V28.1098Z" fill="white"/>
</mask>
<g mask="url(#mask12_118_834)">
<path fill-rule="evenodd" clip-rule="evenodd" d="M125.563 9.45775L124.816 9.07213C126.076 6.9425 128.12 5.39237 130.51 4.75391L130.736 5.55909C128.575 6.14495 126.722 7.54151 125.563 9.45775Z" fill="white"/>
</g>
<mask id="mask13_118_834" style="mask-type:luminance" maskUnits="userSpaceOnUse" x="0" y="0" width="149" height="29">
<path fill-rule="evenodd" clip-rule="evenodd" d="M0 28.1098H148.347V0H0V28.1098Z" fill="white"/>
</mask>
<g mask="url(#mask13_118_834)">
<path fill-rule="evenodd" clip-rule="evenodd" d="M145.711 26.7508H146.55V22.1055H145.711V26.7508Z" fill="white"/>
</g>
<mask id="mask14_118_834" style="mask-type:luminance" maskUnits="userSpaceOnUse" x="0" y="0" width="149" height="29">
<path fill-rule="evenodd" clip-rule="evenodd" d="M0 28.1098H148.347V0H0V28.1098Z" fill="white"/>
</mask>
<g mask="url(#mask14_118_834)">
<path fill-rule="evenodd" clip-rule="evenodd" d="M145.711 20.3335H146.55V18.2832H145.711V20.3335Z" fill="white"/>
</g>
<mask id="mask15_118_834" style="mask-type:luminance" maskUnits="userSpaceOnUse" x="0" y="0" width="149" height="29">
<path fill-rule="evenodd" clip-rule="evenodd" d="M0 28.1098H148.347V0H0V28.1098Z" fill="white"/>
</mask>
<g mask="url(#mask15_118_834)">
<path fill-rule="evenodd" clip-rule="evenodd" d="M89.7689 28.0614C88.9773 27.9511 88.2078 27.7178 87.4883 27.3699L87.8531 26.6152C88.4946 26.9253 89.1805 27.1332 89.8864 27.2312L89.7689 28.0614Z" fill="white"/>
</g>
<mask id="mask16_118_834" style="mask-type:luminance" maskUnits="userSpaceOnUse" x="0" y="0" width="149" height="29">
<path fill-rule="evenodd" clip-rule="evenodd" d="M0 28.1098H148.347V0H0V28.1098Z" fill="white"/>
</mask>
<g mask="url(#mask16_118_834)">
<path fill-rule="evenodd" clip-rule="evenodd" d="M91.5081 28.1098L91.4453 27.2715C94.7696 27.0238 97.4991 24.6973 97.5279 24.6719L98.0773 25.3095C97.9602 25.4143 95.1174 27.8417 91.5081 28.1098Z" fill="white"/>
</g>
<mask id="mask17_118_834" style="mask-type:luminance" maskUnits="userSpaceOnUse" x="0" y="0" width="149" height="29">
<path fill-rule="evenodd" clip-rule="evenodd" d="M0 28.1098H148.347V0H0V28.1098Z" fill="white"/>
</mask>
<g mask="url(#mask17_118_834)">
<path fill-rule="evenodd" clip-rule="evenodd" d="M16.6914 16.4004V16.6307C16.6956 16.551 16.6914 16.4759 16.6914 16.4004Z" fill="black"/>
</g>
<mask id="mask18_118_834" style="mask-type:luminance" maskUnits="userSpaceOnUse" x="0" y="0" width="149" height="29">
<path fill-rule="evenodd" clip-rule="evenodd" d="M0 28.1098H148.347V0H0V28.1098Z" fill="white"/>
</mask>
<g mask="url(#mask18_118_834)">
<path fill-rule="evenodd" clip-rule="evenodd" d="M16.9035 16.6298H16.4844V16.4117L16.9035 16.3867V16.6213V16.6298Z" fill="white"/>
</g>
<mask id="mask19_118_834" style="mask-type:luminance" maskUnits="userSpaceOnUse" x="0" y="0" width="149" height="29">
<path fill-rule="evenodd" clip-rule="evenodd" d="M0 28.1098H148.347V0H0V28.1098Z" fill="white"/>
</mask>
<g mask="url(#mask19_118_834)">
<path fill-rule="evenodd" clip-rule="evenodd" d="M1.34064 4.78784L0.585938 4.42725C2.68205 0.0504829 6.45556 0 6.61041 0V0.8387C6.47211 0.8387 3.19749 0.905728 1.34064 4.78784Z" fill="white"/>
</g>
<mask id="mask20_118_834" style="mask-type:luminance" maskUnits="userSpaceOnUse" x="0" y="0" width="149" height="29">
<path fill-rule="evenodd" clip-rule="evenodd" d="M0 28.1098H148.347V0H0V28.1098Z" fill="white"/>
</mask>
<g mask="url(#mask20_118_834)">
<path fill-rule="evenodd" clip-rule="evenodd" d="M0.8387 7.33933H0C0 6.76917 0.176055 5.51133 0.184539 5.45703L1.02324 5.57454C1.02324 5.57454 0.8387 6.82771 0.8387 7.33933Z" fill="white"/>
</g>
<mask id="mask21_118_834" style="mask-type:luminance" maskUnits="userSpaceOnUse" x="0" y="0" width="149" height="29">
<path fill-rule="evenodd" clip-rule="evenodd" d="M0 28.1098H148.347V0H0V28.1098Z" fill="white"/>
</mask>
<g mask="url(#mask21_118_834)">
<path fill-rule="evenodd" clip-rule="evenodd" d="M11.7277 20.6427C11.4736 20.6435 11.2203 20.6266 10.9688 20.5922L11.107 19.7539C11.1278 19.7539 13.333 20.1018 14.3897 18.6891C14.8827 17.9276 15.0855 17.0134 14.9599 16.1149L15.7986 16.0352C15.95 17.142 15.6887 18.2657 15.0647 19.1923C14.1339 20.4497 12.633 20.6427 11.7277 20.6427Z" fill="white"/>
</g>
<mask id="mask22_118_834" style="mask-type:luminance" maskUnits="userSpaceOnUse" x="0" y="0" width="149" height="29">
<path fill-rule="evenodd" clip-rule="evenodd" d="M0 28.1098H148.347V0H0V28.1098Z" fill="white"/>
</mask>
<g mask="url(#mask22_118_834)">
<path fill-rule="evenodd" clip-rule="evenodd" d="M45.168 26.3237H46.0067V24.4121H45.168V26.3237Z" fill="white"/>
</g>
<mask id="mask23_118_834" style="mask-type:luminance" maskUnits="userSpaceOnUse" x="0" y="0" width="149" height="29">
<path fill-rule="evenodd" clip-rule="evenodd" d="M0 28.1098H148.347V0H0V28.1098Z" fill="white"/>
</mask>
<g mask="url(#mask23_118_834)">
<path fill-rule="evenodd" clip-rule="evenodd" d="M45.168 22.7782H46.0067V16.4941H45.168V22.7782Z" fill="white"/>
</g>
<mask id="mask24_118_834" style="mask-type:luminance" maskUnits="userSpaceOnUse" x="0" y="0" width="149" height="29">
<path fill-rule="evenodd" clip-rule="evenodd" d="M0 28.1098H148.347V0H0V28.1098Z" fill="white"/>
</mask>
<g mask="url(#mask24_118_834)">
<path fill-rule="evenodd" clip-rule="evenodd" d="M53.7305 5.70189H54.5692V2.28516H53.7305V5.70189Z" fill="white"/>
</g>
</g>
<defs>
<clipPath id="clip0_118_834">
<rect width="148.48" height="29" fill="white"/>
</clipPath>
</defs>
</svg>
