<svg width="139" height="39" viewBox="0 0 139 39" fill="none" xmlns="http://www.w3.org/2000/svg">
<g clip-path="url(#clip0_118_951)">
<path d="M7.84297 8.11068C8.46703 7.92589 9.10313 7.78454 9.7467 7.68763C10.5126 7.57514 11.2861 7.52211 12.0603 7.52898C13.524 7.50474 14.9758 7.79555 16.3172 8.3817C17.5262 8.91385 18.6045 9.7034 19.4769 10.6953C20.3509 11.7279 21.0125 12.9229 21.4236 14.2119C21.8737 15.5992 22.0969 17.05 22.0846 18.5085C22.1238 20.3141 21.8118 22.11 21.1658 23.7966C20.6086 25.2137 19.7254 26.4796 18.5878 27.4917C17.4475 28.4825 16.1122 29.2234 14.668 29.6664C13.0619 30.158 11.3899 30.3999 9.71034 30.3836C7.91895 30.4017 6.1306 30.2288 4.37593 29.8681C2.88795 29.5508 1.42535 29.1244 0 28.5923V0H7.84297V8.11068ZM7.84297 24.3353C8.5139 24.5241 9.20846 24.6153 9.90534 24.6064C11.1519 24.6471 12.3515 24.1296 13.1774 23.1951C14.0147 22.252 14.4322 20.8099 14.43 18.8687C14.43 16.9848 14.0191 15.5956 13.1972 14.701C12.4071 13.8175 11.2687 13.3257 10.0838 13.3558C9.69206 13.3527 9.30107 13.3903 8.91712 13.4682C8.55356 13.5435 8.19486 13.6407 7.84297 13.7591V24.3353Z" fill="white"/>
<path d="M30.6533 20.4342C30.7128 21.7563 31.1391 22.7797 31.9323 23.5046C32.7581 24.2522 33.8434 24.6471 34.9565 24.6052C35.8311 24.6282 36.6987 24.4436 37.4882 24.0665C38.2475 23.6594 38.912 23.0962 39.4382 22.414L44.2339 26.1785C43.7454 26.7883 43.1912 27.3425 42.5813 27.831C41.1725 28.9549 39.5103 29.7174 37.7394 30.052C36.5944 30.2686 35.431 30.3726 34.2657 30.3627C32.7791 30.3744 31.3013 30.1318 29.8964 29.6455C27.1681 28.724 24.9814 26.652 23.9142 23.9773C23.2868 22.4013 22.9822 20.7155 23.0185 19.0196C22.9892 17.3594 23.2786 15.7089 23.8712 14.1579C24.3859 12.8085 25.1736 11.5798 26.1848 10.5487C27.1905 9.54317 28.406 8.77233 29.7444 8.29134C31.1582 7.7728 32.6541 7.51415 34.16 7.52786C37.4166 7.52786 40.0077 8.58109 41.9335 10.6875C43.8594 12.794 44.8376 16.0428 44.8684 20.4342H30.6533ZM37.5113 16.2665C37.4815 15.2559 37.1098 14.2854 36.457 13.5134C35.9032 12.8656 35.0915 12.4955 34.2393 12.502C33.3425 12.5049 32.4883 12.8852 31.8861 13.5497C31.1883 14.2978 30.7683 15.2626 30.6962 16.283L37.5113 16.2665Z" fill="white"/>
<path d="M44.6797 13.4926V8.02595H47.7732V2.50977H55.6162V8.02595H58.9411L60.8779 13.4926H55.6162V22.2742C55.593 22.8669 55.6758 23.459 55.8608 24.0226C56.026 24.4423 56.3929 24.6505 56.9614 24.6505C57.4941 24.6497 58.0197 24.5277 58.4982 24.2936C58.9651 24.0702 59.408 23.8 59.8203 23.4871L61.8364 28.2365C60.8559 28.9213 59.7756 29.4508 58.6338 29.8065C57.3307 30.1848 55.9781 30.3653 54.6214 30.3419C53.5159 30.3713 52.4145 30.1965 51.3725 29.8263C50.5539 29.5245 49.8227 29.0249 49.244 28.3721C48.6889 27.7098 48.2971 26.9264 48.1004 26.0849C47.8697 25.1016 47.7587 24.0939 47.7699 23.0839V13.4992L44.6797 13.4926Z" fill="white"/>
<path d="M67.921 29.8939L58.2305 2.49805H65.8123L71.431 19.6316L74.7922 8.02415H79.8887L83.25 19.6316L86.4757 8.02415H94.4972L86.7434 29.8939H80.7381L77.2876 18.4186L73.8834 29.8939H67.921Z" fill="white"/>
<path d="M106.79 29.894L106.163 28.1885C105.456 28.8234 104.635 29.3181 103.743 29.6461C102.612 30.0696 101.411 30.2748 100.203 30.2509C99.2433 30.2599 98.2883 30.1091 97.3776 29.8047C96.5415 29.5234 95.7721 29.0734 95.1169 28.4827C94.4745 27.9024 93.962 27.1928 93.6131 26.4005C93.2417 25.5218 93.0592 24.5747 93.0777 23.6209C93.0132 21.7261 93.8522 19.9133 95.3384 18.736C96.0766 18.149 96.9017 17.6807 97.7841 17.3479C98.7364 16.9806 99.7279 16.7244 100.739 16.5844C101.697 16.4356 102.583 16.3233 103.406 16.2539C104.229 16.1845 104.983 16.125 105.67 16.0952V15.5532C105.67 14.6542 105.386 13.9998 104.817 13.5701C104.232 13.146 103.524 12.9254 102.801 12.9422C101.962 12.9374 101.131 13.105 100.359 13.4346C99.5694 13.7889 98.8294 14.2444 98.1576 14.7897L94.6443 10.9062C95.8338 9.86487 97.1902 9.03137 98.6567 8.44065C100.354 7.80627 102.157 7.50223 103.968 7.54497C106.832 7.54497 109.117 8.24013 110.823 9.63048C112.528 11.0208 113.38 13.1791 113.378 16.1051V29.894H106.79ZM105.67 19.9787C105.221 20.0084 104.774 20.0448 104.325 20.0911C103.875 20.1373 103.413 20.2034 102.937 20.2927C102.011 20.4414 101.35 20.762 100.954 21.2545C100.573 21.7204 100.367 22.3051 100.372 22.907C100.356 23.4944 100.597 24.0597 101.033 24.4538C101.537 24.8827 102.187 25.0996 102.848 25.0586C103.374 25.0655 103.897 24.9747 104.391 24.7909C104.849 24.6138 105.28 24.3723 105.67 24.0737V19.9787Z" fill="white"/>
<path d="M115.386 32.3145C115.856 32.5739 116.353 32.7843 116.866 32.9424C117.372 33.1107 117.9 33.2009 118.433 33.2101C118.911 33.2268 119.384 33.1125 119.801 32.8796C120.2 32.6038 120.504 32.2129 120.674 31.7592L121.93 28.9367L112.652 8.02539H121.166L125.592 20.7962L129.984 8.02539H138.049L127.115 33.9273C126.34 35.7474 125.287 37.0319 123.956 37.7811C122.518 38.5542 120.904 38.9403 119.272 38.9015C118.216 38.9108 117.163 38.7909 116.136 38.5445C115.199 38.3104 114.285 37.9952 113.403 37.6026L115.386 32.3145Z" fill="white"/>
</g>
<defs>
<clipPath id="clip0_118_951">
<rect width="138.153" height="39" fill="white"/>
</clipPath>
</defs>
</svg>
