<svg width="29" height="32" viewBox="0 0 29 32" fill="none" xmlns="http://www.w3.org/2000/svg">
<g clip-path="url(#clip0_116_61)">
<circle cx="14.8635" cy="15.6077" r="13.4299" fill="white"/>
<mask id="mask0_116_61" style="mask-type:alpha" maskUnits="userSpaceOnUse" x="1" y="2" width="28" height="28">
<circle cx="14.8635" cy="15.6077" r="13.4299" fill="#D9D9D9"/>
</mask>
<g mask="url(#mask0_116_61)">
<path fill-rule="evenodd" clip-rule="evenodd" d="M13.5326 8.85841C13.5326 8.11596 12.9308 7.51407 12.1883 7.51407C11.4458 7.51407 10.844 8.11596 10.844 8.85841V9.53058H9.49962C8.75717 9.53058 8.15528 10.1325 8.15528 10.8749C8.15528 11.6174 8.75717 12.2193 9.49962 12.2193H10.844V18.9409H9.49962C8.75717 18.9409 8.15528 19.5428 8.15528 20.2853C8.15528 21.0278 8.75717 21.6296 9.49962 21.6296H10.844V22.3018C10.844 23.0443 11.4458 23.6461 12.1883 23.6461C12.9308 23.6461 13.5326 23.0443 13.5326 22.3018V21.6296H14.877V22.3018C14.877 23.0443 15.4788 23.6461 16.2213 23.6461C16.9638 23.6461 17.5656 23.0443 17.5656 22.3018V21.5814C18.4474 21.4516 19.1982 21.0645 19.7575 20.4772C20.4371 19.7635 20.7584 18.8335 20.7584 17.9327C20.7584 17.1106 20.4909 16.2642 19.9275 15.5801C20.4909 14.896 20.7584 14.0496 20.7584 13.2275C20.7584 12.3267 20.4371 11.3967 19.7575 10.683C19.1982 10.0957 18.4474 9.70859 17.5656 9.5788V8.85841C17.5656 8.11596 16.9638 7.51407 16.2213 7.51407C15.4788 7.51407 14.877 8.11596 14.877 8.85841V9.53058H13.5326V8.85841ZM1.43359 15.5801C1.43359 8.15552 7.45239 2.13672 14.877 2.13672C22.3015 2.13672 28.3203 8.15552 28.3203 15.5801C28.3203 23.0046 22.3015 29.0235 14.877 29.0235C7.45239 29.0235 1.43359 23.0046 1.43359 15.5801Z" fill="#F7931A"/>
</g>
<path fill-rule="evenodd" clip-rule="evenodd" d="M13.1719 14.2782V12.2617H16.5327C17.0393 12.2617 17.306 12.4288 17.4497 12.5797C17.6102 12.7482 17.709 12.9945 17.709 13.27C17.709 13.5454 17.6102 13.7917 17.4497 13.9603C17.306 14.1111 17.0393 14.2782 16.5327 14.2782H13.1719Z" fill="#F7931A"/>
<path fill-rule="evenodd" clip-rule="evenodd" d="M16.5327 18.9833C17.0393 18.9833 17.306 18.8162 17.4497 18.6654C17.6102 18.4968 17.709 18.2505 17.709 17.9751C17.709 17.6996 17.6102 17.4533 17.4497 17.2847C17.306 17.1339 17.0393 16.9668 16.5327 16.9668H13.1719V18.9833H16.5327Z" fill="#F7931A"/>
</g>
<defs>
<clipPath id="clip0_116_61">
<rect width="27.9891" height="31.1752" fill="white" transform="translate(0.871094)"/>
</clipPath>
</defs>
</svg>
