<svg width="25" height="25" viewBox="0 0 25 25" fill="none" xmlns="http://www.w3.org/2000/svg">
<path d="M13.3702 16.9705V18.0706C13.3702 18.2483 13.2995 18.4186 13.1739 18.5442C13.0482 18.6699 12.8778 18.7405 12.7001 18.7405C12.5224 18.7405 12.352 18.6699 12.2264 18.5442C12.1007 18.4186 12.0302 18.2483 12.0302 18.0706V16.9404C11.5867 16.8673 11.1625 16.7056 10.7828 16.4651C10.4032 16.2246 10.0757 15.9102 9.82013 15.5405C9.71763 15.4285 9.66061 15.2822 9.66016 15.1304C9.66006 15.0438 9.67753 14.9581 9.71155 14.8784C9.74557 14.7988 9.79545 14.7268 9.85809 14.667C9.92074 14.6072 9.99484 14.5606 10.076 14.5303C10.1571 14.4999 10.2436 14.4864 10.3301 14.4905C10.416 14.49 10.5009 14.5086 10.5787 14.5449C10.6566 14.5812 10.7254 14.6343 10.7802 14.7005C11.1 15.1183 11.5342 15.4343 12.0302 15.6104V13.0706C10.7002 12.5406 10.0301 11.7705 10.0301 10.7605C10.0502 10.2198 10.2627 9.70402 10.6294 9.30615C10.9961 8.90829 11.4929 8.65456 12.0302 8.59058V7.48047C12.0302 7.30278 12.1007 7.13224 12.2264 7.00659C12.352 6.88094 12.5224 6.81055 12.7001 6.81055C12.8778 6.81055 13.0482 6.88094 13.1739 7.00659C13.2995 7.13224 13.3702 7.30278 13.3702 7.48047V8.58057C13.7439 8.63816 14.1021 8.77041 14.4234 8.96973C14.7447 9.16905 15.0226 9.43126 15.2402 9.74048C15.3284 9.85617 15.3805 9.9952 15.3901 10.1404C15.3928 10.2261 15.3783 10.3116 15.3473 10.3916C15.3163 10.4716 15.2696 10.5444 15.2099 10.606C15.1502 10.6675 15.0787 10.7166 14.9998 10.75C14.9208 10.7834 14.8359 10.8006 14.7501 10.8005C14.6607 10.7994 14.5725 10.7792 14.4915 10.7412C14.4104 10.7033 14.3384 10.6485 14.2802 10.5806C14.0417 10.2827 13.7274 10.0545 13.3702 9.92041V12.1704L13.6202 12.2705C14.8902 12.7605 15.6802 13.4804 15.6802 14.6304C15.663 15.2404 15.4149 15.8213 14.9862 16.2556C14.5575 16.6899 13.9799 16.9454 13.3702 16.9705ZM12.0302 11.5906V9.97046C11.8688 10.029 11.7298 10.1368 11.6329 10.2786C11.5361 10.4203 11.4862 10.5889 11.4902 10.7605C11.4984 10.9305 11.553 11.095 11.6483 11.2361C11.7435 11.3772 11.8756 11.4894 12.0302 11.5606V11.5906ZM14.2302 14.6604C14.2302 14.1704 13.8902 13.8804 13.3702 13.6604V15.6604C13.6157 15.6259 13.8396 15.5014 13.9985 15.311C14.1574 15.1207 14.24 14.8781 14.2302 14.6304V14.6604Z" fill="white"/>
<path d="M13.08 3.96875H6.5C5.43913 3.96875 4.42178 4.39024 3.67163 5.14038C2.92149 5.89053 2.5 6.90788 2.5 7.96875V17.9688C2.5 19.0296 2.92149 20.047 3.67163 20.7971C4.42178 21.5473 5.43913 21.9688 6.5 21.9688H18.5C19.5609 21.9688 20.5783 21.5473 21.3284 20.7971C22.0786 20.047 22.5 19.0296 22.5 17.9688V11.8987" stroke="white" stroke-width="1.5" stroke-linecap="round" stroke-linejoin="round"/>
<path d="M22.4998 2.91992L16.8398 8.57992" stroke="white" stroke-width="1.5" stroke-linecap="round" stroke-linejoin="round"/>
<path d="M21.3698 8.58078H16.8398V4.05078" stroke="white" stroke-width="1.5" stroke-linecap="round" stroke-linejoin="round"/>
</svg>
