<svg width="137" height="40" viewBox="0 0 137 40" fill="none" xmlns="http://www.w3.org/2000/svg">
<path fill-rule="evenodd" clip-rule="evenodd" d="M0.49314 0H16.7911C18.8019 0 20.7929 0.396049 22.6506 1.16553C24.5083 1.93502 26.1963 3.06287 27.6181 4.48469C29.0399 5.90651 30.1678 7.59446 30.9373 9.45216C31.7068 11.3099 32.1028 13.3009 32.1028 15.3117V24.199C32.1032 28.259 30.4911 32.1529 27.621 35.0245C24.7509 37.8961 20.8578 39.5103 16.7979 39.5121H15.3117C13.3008 39.5121 11.3096 39.116 9.4518 38.3464C7.59406 37.5768 5.90605 36.4489 4.48421 35.0269C3.06237 33.6049 1.93455 31.9168 1.16515 30.059C0.39574 28.2011 -0.000179939 26.2099 6.13484e-08 24.199V0.493141C0.000360061 0.362462 0.05243 0.237236 0.14483 0.144832C0.23724 0.0524268 0.36246 0.000356563 0.49314 0ZM16.3628 34.5726C22.9507 34.5726 27.1863 30.2194 27.1863 24.4544V18.411C27.1863 18.0179 26.9512 17.822 26.5594 17.822H16.9897C16.6371 17.822 16.402 18.0571 16.402 18.4502V22.4899C16.402 22.9209 16.6371 23.1168 16.9897 23.1168H21.378V24.0626C21.378 27.397 19.6527 28.9264 16.3588 28.9264C12.3583 28.9264 11.0247 26.5729 11.0247 23.3965V16.1007C11.0247 12.9243 12.3583 10.5708 16.3588 10.5708C18.9461 10.5708 20.3579 11.7435 21.0254 13.9052C21.1862 14.4146 21.4604 14.5713 21.9711 14.4146L26.2067 13.1594C26.6377 13.0027 26.8336 12.6893 26.6769 12.1394C25.5393 8.53201 22.6764 4.9233 16.3628 4.9233C8.559 4.9233 4.91114 9.55478 4.91114 15.9048V23.5911C4.91114 29.9451 8.5577 34.5726 16.3628 34.5726ZM51.4083 15.671C51.6758 15.5805 51.7974 15.3792 51.7001 15.0401C50.9962 12.8054 49.2223 10.5707 45.3123 10.5707C40.4795 10.5707 38.2218 13.4364 38.2218 17.3707V22.1319C38.2218 26.0662 40.4795 28.9318 45.3123 28.9318C49.3925 28.9318 52.0163 26.2351 52.0163 22.6655V18.9258C52.0163 18.6826 51.8703 18.561 51.6272 18.561H45.7014C45.6507 18.5587 45.6002 18.5675 45.5533 18.5866C45.5064 18.6057 45.4641 18.6347 45.4295 18.6717C45.3948 18.7086 45.3686 18.7526 45.3526 18.8007C45.3365 18.8488 45.3311 18.8997 45.3366 18.9501V21.4509C45.3366 21.7184 45.4825 21.84 45.7014 21.84H48.4197V22.4223C48.4197 24.4881 47.3524 25.4339 45.3123 25.4339C42.8357 25.4339 42.0102 23.9774 42.0102 22.0103V17.4923C42.0102 15.5251 42.8357 14.0687 45.3123 14.0687C46.916 14.0687 47.7969 14.7969 48.2022 16.1331C48.2995 16.4479 48.4697 16.5452 48.7859 16.4479L51.4083 15.671ZM65.0055 28.2752V19.5081C65.0055 16.4965 63.1113 14.8942 59.739 14.9077C56.5329 14.9077 54.7117 16.3155 54.3469 18.234C54.2982 18.4286 54.3198 18.5745 54.5901 18.6475L57.2611 19.323C57.5286 19.3919 57.6259 19.3433 57.7475 19.0528C58.0623 18.2989 58.4028 17.8138 59.5931 17.8138C60.7631 17.8138 61.4386 18.3232 61.4386 19.6351V20.6065C60.6285 20.5537 59.8156 20.5618 59.0067 20.6308C55.2669 20.8983 53.7375 22.3521 53.7375 24.784C53.7375 27.2848 55.3642 28.9129 57.8894 28.9129C58.6325 28.9232 59.3652 28.7372 60.0135 28.3738C60.6619 28.0104 61.2028 27.4824 61.5819 26.843V28.2752C61.5796 28.3257 61.5883 28.376 61.6074 28.4229C61.6264 28.4697 61.6553 28.5119 61.6921 28.5465C61.7289 28.5811 61.7728 28.6074 61.8206 28.6235C61.8685 28.6397 61.9193 28.6453 61.9696 28.64H64.642C64.6906 28.6427 64.7392 28.6352 64.7846 28.6178C64.8301 28.6004 64.8713 28.5736 64.9056 28.5392C64.94 28.5047 64.9666 28.4634 64.9838 28.4179C65.001 28.3724 65.0084 28.3237 65.0055 28.2752ZM61.4359 22.8331V24.099C60.9982 25.3366 60.0754 25.9932 58.8851 25.9851C57.8407 25.9851 57.2098 25.4731 57.2098 24.5273C57.2098 23.4883 57.938 23.0763 59.2985 22.906C60.0084 22.8319 60.7226 22.8075 61.4359 22.8331ZM77.9771 17.3261C77.4678 15.8899 76.3504 14.8942 74.6508 14.8942C72.9498 14.8942 71.7851 15.9426 70.9785 17.0559V15.5251C70.9791 15.4784 70.9698 15.432 70.9514 15.389C70.933 15.346 70.9059 15.3073 70.8717 15.2754C70.8375 15.2435 70.797 15.219 70.7528 15.2036C70.7086 15.1883 70.6617 15.1822 70.6151 15.186H67.7779C67.7312 15.1823 67.6842 15.1883 67.64 15.2036C67.5957 15.219 67.5552 15.2434 67.5209 15.2753C67.4866 15.3072 67.4593 15.3459 67.4407 15.3889C67.4221 15.4319 67.4127 15.4783 67.4131 15.5251V28.2752C67.408 28.3243 67.4139 28.374 67.4305 28.4206C67.447 28.4671 67.4737 28.5094 67.5087 28.5444C67.5436 28.5793 67.5859 28.606 67.6325 28.6226C67.679 28.6391 67.7287 28.6451 67.7779 28.64H70.7313C70.7804 28.6448 70.8299 28.6387 70.8763 28.6221C70.9227 28.6055 70.9648 28.5787 70.9996 28.5438C71.0344 28.5089 71.061 28.4667 71.0774 28.4202C71.0939 28.3738 71.0998 28.3242 71.0947 28.2752V20.3579C71.4352 19.1203 72.1634 18.2448 73.1835 18.2448C74.1292 18.2448 74.6697 18.9717 74.6697 20.1877V28.2752C74.6697 28.4941 74.767 28.64 74.9845 28.64H77.996C78.0429 28.6403 78.0894 28.6309 78.1324 28.6123C78.1755 28.5938 78.2143 28.5665 78.2463 28.5323C78.2783 28.498 78.3028 28.4574 78.3183 28.4132C78.3339 28.3689 78.34 28.3219 78.3365 28.2752V20.3336C78.7013 19.0717 79.4295 18.2448 80.4252 18.2448C81.3778 18.2448 81.9114 18.9717 81.9114 20.1877V28.2752C81.9114 28.4941 82.106 28.64 82.3492 28.64H85.1418C85.385 28.64 85.5796 28.4941 85.5796 28.2752V19.5567C85.5796 16.7641 84.2434 14.8942 81.8871 14.8942C80.1875 14.8942 78.9728 15.8696 77.9771 17.3261ZM100.547 15.817C100.837 15.744 100.935 15.5008 100.862 15.186C100.182 12.6109 98.385 10.5707 94.548 10.5707C90.1759 10.5707 87.8926 13.4364 87.8926 17.3707V22.1319C87.8926 26.0662 90.1273 28.9318 94.548 28.9318C98.482 28.9318 100.377 26.7944 100.983 24.1706C101.056 23.8558 100.959 23.637 100.667 23.5397L98.093 22.7142C97.7811 22.5926 97.5838 22.7385 97.5109 23.0303C97.2191 24.3652 96.4881 25.4339 94.5966 25.4339C92.4836 25.4339 91.681 23.9774 91.681 22.0103V17.4923C91.681 15.5251 92.3863 14.0687 94.5966 14.0687C96.3936 14.0687 97.0245 15.0374 97.3893 16.2534C97.4866 16.5452 97.6555 16.6668 97.9716 16.5695L100.547 15.817ZM113.79 28.2752V19.5081C113.79 16.4965 111.896 14.8942 108.523 14.9077C105.317 14.9077 103.496 16.3155 103.131 18.234C103.083 18.4286 103.104 18.5745 103.375 18.6475L106.046 19.323C106.313 19.3919 106.41 19.3433 106.532 19.0528C106.847 18.2989 107.187 17.8138 108.378 17.8138C109.548 17.8138 110.223 18.3232 110.223 19.6351V20.6065C109.413 20.5537 108.6 20.5618 107.791 20.6308C104.051 20.8983 102.522 22.3521 102.522 24.784C102.522 27.2848 104.149 28.9129 106.674 28.9129C107.417 28.9234 108.15 28.7376 108.798 28.3741C109.447 28.0107 109.988 27.4825 110.366 26.843V28.2752C110.364 28.3257 110.373 28.376 110.392 28.4229C110.411 28.4697 110.44 28.5119 110.477 28.5465C110.513 28.5811 110.557 28.6074 110.605 28.6235C110.653 28.6397 110.704 28.6453 110.754 28.64H113.427C113.475 28.6427 113.524 28.6352 113.569 28.6178C113.615 28.6004 113.656 28.5736 113.69 28.5392C113.724 28.5047 113.751 28.4634 113.768 28.4179C113.786 28.3724 113.793 28.3237 113.79 28.2752ZM110.22 22.8331V24.099C109.783 25.3366 108.86 25.9932 107.67 25.9851C106.627 25.9851 105.994 25.4731 105.994 24.5273C105.994 23.4883 106.722 23.0763 108.083 22.906C108.793 22.8319 109.507 22.8075 110.22 22.8331ZM124.189 18.0273V15.4278C124.189 15.0887 124.092 15.0158 123.605 15.0158C121.517 15.0158 120.326 16.1817 119.695 17.3707V15.5738C119.695 15.3792 119.623 15.186 119.331 15.186H116.562C116.515 15.1802 116.468 15.1848 116.423 15.1994C116.377 15.2141 116.336 15.2384 116.301 15.2708C116.267 15.3031 116.24 15.3426 116.222 15.3866C116.204 15.4305 116.196 15.4778 116.199 15.5251V28.2779C116.195 28.3227 116.2 28.3679 116.213 28.4108C116.227 28.4537 116.249 28.4934 116.278 28.5274C116.308 28.5615 116.344 28.5893 116.384 28.6091C116.425 28.6289 116.469 28.6403 116.514 28.6427H119.57C119.615 28.6409 119.66 28.6298 119.701 28.61C119.743 28.5903 119.779 28.5624 119.809 28.528C119.839 28.4936 119.862 28.4534 119.876 28.4099C119.89 28.3665 119.894 28.3206 119.89 28.2752V20.7957C120.279 19.3378 121.419 18.4637 123.362 18.4637H123.751C124.068 18.4637 124.189 18.3421 124.189 18.0273ZM128.961 23.5397V23.0303L136.369 23.0357C136.878 23.0357 137 22.7925 137 22.4277V20.2863C137 17.2991 135.149 14.8955 131.366 14.8955C127.383 14.8955 125.465 17.2991 125.465 20.3593V23.4667C125.465 26.6242 127.505 28.9318 131.39 28.9318C133.964 28.9318 136.029 27.8631 136.854 25.9932C137.024 25.6284 137 25.4339 136.612 25.2393L134.692 24.2679C134.305 24.1058 134.207 24.1463 133.988 24.5111C133.552 25.3123 133.09 25.9446 131.415 25.9446C129.691 25.9446 128.961 24.9488 128.961 23.5397ZM128.961 20.6551V20.1931V20.1877C128.961 18.8771 129.715 17.8625 131.317 17.8625C132.92 17.8625 133.649 18.8825 133.649 20.1931V20.6551H128.961Z" fill="#A1BADC"/>
</svg>
