<svg width="118" height="22" viewBox="0 0 118 22" fill="none" xmlns="http://www.w3.org/2000/svg">
<path d="M57.1035 21.0373H1.21787C0.649808 21.0373 0.179688 20.5671 0.179688 19.9991V10.3224C0.179688 4.73976 4.7046 0.214844 10.2873 0.214844H57.0839C57.6519 0.214844 58.122 0.684962 58.122 1.25302V20.0578C58.122 20.6259 57.6519 21.096 57.0839 21.096V21.0373H57.1035Z" fill="#222222"/>
<path d="M57.1001 21.273H1.23407C0.548474 21.273 0 20.7245 0 20.0389V10.3622C0 4.64244 4.64244 0 10.3622 0H57.1001C57.7856 0 58.3341 0.548472 58.3341 1.23406V20.0389C58.3341 20.7245 57.7856 21.273 57.1001 21.273ZM10.3427 0.489709C4.89709 0.489709 0.47012 4.91668 0.47012 10.3622V20.0389C0.47012 20.4502 0.803122 20.8028 1.23407 20.8028H57.1196C57.531 20.8028 57.8836 20.4698 57.8836 20.0389V1.23406C57.8836 0.822709 57.5506 0.470119 57.1196 0.470119L10.3427 0.489709Z" fill="#A1BADC"/>
<path d="M19.7444 9.89206V17.6491C19.7444 17.7274 19.6856 17.7862 19.6073 17.7862H16.5515C16.4731 17.7862 16.4144 17.7274 16.4144 17.6491C16.4144 17.5707 16.3556 17.5119 16.2772 17.5119C16.2577 17.5119 16.2381 17.5119 16.2185 17.5119C15.9051 17.6099 15.6112 17.6882 15.2782 17.7274C14.9061 17.7862 14.5143 17.8253 14.1225 17.8253C13.1823 17.8058 12.2616 17.6099 11.3997 17.2573C10.4987 16.9047 9.67596 16.3562 9.00996 15.6706C8.32437 15.0046 7.79548 14.2015 7.44289 13.32C7.10989 12.4581 6.93359 11.5375 6.93359 10.5972C6.93359 9.65701 7.10989 8.73635 7.44289 7.87447C7.79548 6.9734 8.32437 6.15069 9.00996 5.48468C9.69555 4.79909 10.4987 4.25062 11.3997 3.89803C13.1431 3.19285 15.1019 3.19285 16.8453 3.89803C17.6876 4.23103 18.4711 4.74033 19.1176 5.38674C19.1763 5.44551 19.1763 5.54345 19.1176 5.58263L16.9628 7.73735C16.9041 7.79611 16.8061 7.79611 16.7669 7.73735C16.4144 7.40434 16.0226 7.1497 15.5721 6.9734C14.6318 6.60122 13.574 6.60122 12.6338 6.9734C12.1441 7.16928 11.7132 7.44352 11.341 7.8157C9.81308 9.34359 9.81308 11.8117 11.3214 13.32C11.3214 13.32 11.3214 13.32 11.341 13.3396C11.674 13.6726 12.0657 13.9469 12.4967 14.1427C12.908 14.3386 13.3586 14.4366 13.8091 14.4757C14.2596 14.5149 14.7102 14.4757 15.1607 14.3582C15.5721 14.2407 15.9834 14.0644 16.336 13.8097C16.3752 13.7901 16.3948 13.7314 16.3948 13.6922V13.2025C16.3948 13.1241 16.336 13.0654 16.2577 13.0654H13.672C13.5936 13.0654 13.5349 13.0066 13.5349 12.9283V9.91165C13.5349 9.8333 13.5936 9.77453 13.672 9.77453H19.5877C19.666 9.73536 19.7444 9.79412 19.7444 9.89206Z" fill="#A1BADC"/>
<path d="M31.089 17.7075L30.5993 16.2188C30.5797 16.16 30.5209 16.1209 30.4622 16.1209H26.1136C26.0548 16.1209 25.996 16.16 25.9764 16.2188L25.4671 17.7663C25.4476 17.8251 25.3888 17.8642 25.33 17.8642H22.1371C22.0588 17.8642 22 17.8055 22 17.7271C22 17.7075 22 17.6879 22 17.6684L26.7991 3.56474C26.8187 3.50597 26.8775 3.4668 26.9363 3.4668H29.8549C29.9137 3.4668 29.9725 3.50597 29.992 3.56474L34.5365 17.6684C34.5561 17.7467 34.5365 17.8251 34.4582 17.8642C34.4386 17.8642 34.419 17.8838 34.3994 17.8642H31.2261C31.1478 17.8642 31.089 17.8055 31.089 17.7075ZM27.3672 12.7517H29.2869C29.3652 12.7517 29.4436 12.6929 29.4436 12.6146C29.4436 12.595 29.4436 12.5754 29.4436 12.5558L28.5033 9.6763C28.4837 9.59795 28.4054 9.55877 28.327 9.57836C28.2683 9.59795 28.2487 9.63712 28.2291 9.6763L27.1909 12.5558C27.1517 12.6341 27.1909 12.7125 27.2693 12.7517C27.3084 12.7713 27.328 12.7713 27.3672 12.7517Z" fill="#A1BADC"/>
<path d="M47.2693 3.38867H50.4426C50.521 3.38867 50.5797 3.44744 50.5797 3.52579L51.4024 17.649C51.4024 17.7274 51.3437 17.8057 51.2653 17.8057C51.2653 17.8057 51.2653 17.8057 51.2457 17.8057H48.2487C48.1704 17.8057 48.1116 17.7469 48.1116 17.6686L47.8178 12.6736C47.8178 12.5952 47.759 12.5364 47.6806 12.5364C47.6023 12.5364 47.5435 12.5952 47.5435 12.6736L45.8393 17.7078C45.8198 17.7665 45.761 17.8057 45.7022 17.8057H42.5681C42.5093 17.8057 42.4506 17.7665 42.431 17.7078L40.5701 12.3797C40.5701 12.3014 40.5113 12.2426 40.433 12.2426C40.3546 12.2426 40.2958 12.3014 40.2958 12.3797L39.9628 17.6294C39.9628 17.7078 39.8845 17.7665 39.8257 17.7665H36.7699C36.6916 17.7665 36.6328 17.7078 36.6328 17.6294C36.6328 17.6294 36.6328 17.6294 36.6328 17.6098L37.5535 3.54538C37.5535 3.46703 37.6318 3.40826 37.6906 3.40826H40.8639C40.9227 3.40826 40.9814 3.44744 41.001 3.5062L43.9784 12.0271C43.998 12.1055 44.0764 12.1447 44.1547 12.1251C44.2135 12.1055 44.2331 12.0663 44.2527 12.0271L47.1518 3.5062C47.1518 3.44744 47.2105 3.40826 47.2693 3.38867Z" fill="#A1BADC"/>
<path d="M60.4132 0.234375H116.299C116.867 0.234375 117.337 0.704493 117.337 1.27256V10.9492C117.337 16.5319 112.812 21.0568 107.229 21.0568H60.4132C59.8451 21.0568 59.375 20.5867 59.375 20.0186V1.21379C59.3946 0.665319 59.8451 0.234375 60.4132 0.234375Z" fill="#1D1D1B"/>
<path d="M107.171 21.273H60.4138C59.7282 21.273 59.1797 20.7245 59.1797 20.0389V1.23406C59.1797 0.548472 59.7282 0 60.4138 0H116.299C116.985 0 117.533 0.548472 117.533 1.23406V10.9107C117.533 16.6305 112.891 21.2534 107.171 21.273ZM60.4138 0.489709C60.0024 0.489709 59.6498 0.82271 59.6498 1.25365V20.0389C59.6498 20.4502 59.9828 20.8028 60.4138 20.8028H107.191C112.636 20.8028 117.063 16.3759 117.063 10.9303V1.25365C117.063 0.842298 116.73 0.489709 116.299 0.489709H60.4138Z" fill="#A1BADC"/>
<path d="M68.6197 17.8254C68.1692 17.8254 67.699 17.7667 67.2681 17.6296C66.8176 17.512 66.3866 17.3161 65.9753 17.0419C65.2897 16.5914 64.7216 15.9841 64.3298 15.2789C63.9577 14.5934 63.7618 13.8294 63.7422 13.0459C63.7422 12.9675 63.8009 12.8892 63.8793 12.8892C63.8793 12.8892 63.8793 12.8892 63.8989 12.8892H66.9743C67.0526 12.8892 67.1114 12.9479 67.1114 13.0263C67.1114 13.3005 67.2093 13.5748 67.366 13.7902C67.4836 13.9665 67.6403 14.1232 67.8166 14.2408C68.0516 14.3975 68.3063 14.4954 68.5805 14.4954C68.8547 14.515 69.129 14.4562 69.3836 14.3387C69.5599 14.2799 69.697 14.182 69.8342 14.0449C69.9321 13.9469 70.03 13.8294 70.0888 13.7119C70.1476 13.6139 70.1868 13.4964 70.1868 13.3985C70.2063 13.2222 70.2063 13.0655 70.1868 12.8892C70.1672 12.7716 70.128 12.6541 70.0888 12.5562C70.03 12.4386 69.9321 12.3211 69.8342 12.2232C69.697 12.1056 69.5599 12.0077 69.3836 11.9293L68.9331 11.753L68.4238 11.5768L67.3856 11.2242C67.0134 11.087 66.6804 10.9107 66.3474 10.6953C65.8969 10.421 65.5051 10.0684 65.1917 9.65709C64.5649 8.81479 64.2711 7.77661 64.369 6.71884C64.4082 6.18995 64.5649 5.66107 64.8195 5.19095C65.0546 4.76 65.3484 4.36824 65.701 4.03523C66.0536 3.72182 66.4454 3.44758 66.8763 3.2517C67.3073 3.05582 67.7774 2.93828 68.2671 2.9187C68.7764 2.87952 69.2857 2.9187 69.7754 3.05582C70.2455 3.17335 70.7156 3.34964 71.127 3.62388C71.5188 3.87853 71.8714 4.19194 72.1652 4.54453C72.4394 4.89712 72.6353 5.28889 72.792 5.70024C72.9291 6.09201 73.0075 6.52295 73.0271 6.9539C73.0271 7.03225 72.9683 7.1106 72.8899 7.1106C72.8899 7.1106 72.89 7.1106 72.8704 7.1106H69.8733C69.795 7.1106 69.7362 7.05184 69.7362 6.99308C69.7362 6.79719 69.6187 6.60131 69.462 6.50337C69.3053 6.40543 69.1486 6.32707 68.9723 6.26831H68.8156C68.698 6.24872 68.6001 6.24872 68.4826 6.26831C68.3454 6.28789 68.2083 6.32707 68.0908 6.40543C67.9537 6.48378 67.8362 6.60131 67.7774 6.73842C67.6794 6.93431 67.6599 7.16937 67.7186 7.38484C67.7774 7.60032 67.9145 7.7962 68.1104 7.93332C68.3063 8.05085 68.5022 8.1292 68.7176 8.20755L69.4228 8.4622L70.0888 8.67767C70.3239 8.75602 70.5393 8.83438 70.7744 8.95191C72.4394 9.67668 73.5168 11.3221 73.5364 13.1438C73.5364 14.0449 73.2817 14.9264 72.792 15.6707C72.0868 16.7285 70.9899 17.4728 69.7362 17.7471C69.3445 17.7863 68.9723 17.8254 68.6197 17.8254Z" fill="#A1BADC"/>
<path d="M112.925 9.48054C112.925 10.2837 112.769 11.0672 112.475 11.8115C112.181 12.5167 111.75 13.1631 111.202 13.7116C110.653 14.2601 110.007 14.7106 109.301 15.024C108.616 15.3375 107.891 15.4942 107.127 15.5138C107.049 15.5138 106.99 15.5725 106.99 15.6509V17.6685C106.99 17.7468 106.931 17.8056 106.853 17.8056H103.836C103.758 17.8056 103.699 17.7468 103.699 17.6685V3.56486C103.699 3.4865 103.758 3.42773 103.836 3.42773H106.99C107.793 3.42773 108.577 3.60403 109.301 3.93703C110.007 4.25045 110.653 4.70098 111.202 5.24945C111.75 5.79792 112.181 6.44434 112.475 7.14952C112.769 7.89388 112.925 8.67741 112.925 9.48054ZM106.97 12.0662C106.97 12.1446 107.029 12.2033 107.108 12.2033C107.108 12.2033 107.108 12.2033 107.127 12.2033C107.421 12.1837 107.715 12.0858 107.989 11.9683C108.302 11.8311 108.577 11.6157 108.812 11.3806C109.047 11.126 109.243 10.8321 109.38 10.5187C109.654 9.85272 109.654 9.10836 109.38 8.44235C109.243 8.12894 109.066 7.83512 108.812 7.58047C108.577 7.32582 108.283 7.12994 107.989 6.99282C107.715 6.8557 107.421 6.77734 107.127 6.75775C107.049 6.75775 106.99 6.79693 106.97 6.87529V12.0662Z" fill="#A1BADC"/>
<path d="M93.3979 3.4082C94.3577 3.4082 95.3175 3.60409 96.199 3.97626C97.0609 4.34844 97.8248 4.85774 98.4909 5.50416C99.1373 6.15058 99.6662 6.93411 100.038 7.77641C100.802 9.57854 100.802 11.5961 100.038 13.3787C99.6662 14.221 99.1569 15.0045 98.4909 15.6509C97.8248 16.3169 97.0609 16.8458 96.199 17.218C94.4165 17.9819 92.3989 17.9819 90.5967 17.218C88.873 16.4932 87.5018 15.122 86.777 13.3983C86.0327 11.5961 86.0327 9.57853 86.777 7.79599C87.5018 6.07222 88.873 4.70103 90.5967 3.97626C91.4782 3.60409 92.4381 3.4082 93.3979 3.4082ZM93.3979 14.4952C93.9268 14.4952 94.4361 14.3973 94.9062 14.2014C95.8464 13.8096 96.5908 13.0653 96.9825 12.125C97.3939 11.1652 97.3939 10.0682 96.9825 9.10842C96.5908 8.16817 95.8464 7.42382 94.9062 7.03205C93.9464 6.62069 92.8494 6.62069 91.8896 7.03205C90.9493 7.42382 90.205 8.16817 89.8132 9.10842C89.4019 10.0682 89.4019 11.1652 89.8132 12.125C90.205 13.0653 90.9493 13.8096 91.8896 14.2014C92.3793 14.3973 92.8886 14.4952 93.3979 14.4952Z" fill="#A1BADC"/>
<path d="M78.727 6.58203H81.7827C81.8611 6.58203 81.9199 6.64079 81.9199 6.71915V17.669C81.9199 17.7474 81.8611 17.8062 81.7827 17.8062H78.727C78.6486 17.8062 78.5898 17.7474 78.5898 17.669V6.71915C78.5898 6.64079 78.6486 6.58203 78.727 6.58203Z" fill="#A1BADC"/>
<path d="M75.9809 3.4082H84.5214C84.5997 3.4082 84.6585 3.46697 84.6585 3.54532V6.60111C84.6585 6.67946 84.5997 6.73822 84.5214 6.73822H75.9809C75.9025 6.73822 75.8438 6.67946 75.8438 6.60111V3.54532C75.8438 3.48656 75.9025 3.4082 75.9809 3.4082Z" fill="#A1BADC"/>
</svg>
