<svg width="121" height="39" viewBox="0 0 121 39" fill="none" xmlns="http://www.w3.org/2000/svg">
<g clip-path="url(#clip0_118_962)">
<path d="M35.9223 10.7841C34.4996 11.3648 33.3092 12.0994 32.0229 12.3433C31.2883 12.0297 31.1751 11.3503 30.7686 10.9061C30.3621 10.4618 29.6769 10.4299 29.2268 9.97406C28.1032 10.0176 26.9505 9.83759 25.8646 10.5373C24.7787 11.2371 24.5144 12.352 23.8728 13.4002C23.8728 14.1116 23.8728 14.9275 23.8728 15.7462C23.8466 17.6568 24.7438 19.004 26.422 19.8315C26.6124 19.9019 26.7863 20.0106 26.9331 20.1509C27.8564 19.9738 28.8378 20.3657 29.8192 19.8896C30.7163 19.454 31.2274 18.7282 31.6948 17.9384L31.2825 17.5261H28.6694L28.2745 17.108V14.0825H36.5524L36.9444 14.4745C36.4043 15.9263 36.7092 17.5174 35.9949 19.0098C35.2082 20.6879 33.8992 22.0661 32.2639 22.9382C31.4192 23.2608 30.5436 23.4952 29.6508 23.638C28.9249 23.638 28.199 23.6206 27.476 23.638C25.1184 23.7106 23.1817 22.825 21.5296 21.1729C20.8618 20.5051 20.194 19.8286 19.924 18.9343C19.5988 17.8513 19.0065 16.806 19.2155 15.5953C19.2422 15.3055 19.2422 15.0139 19.2155 14.7242C19.1836 12.7208 19.8659 11.0164 21.0447 9.37593C21.7503 8.42068 22.6213 7.89514 23.5737 7.37832C24.5261 6.86149 25.4349 6.46661 26.5411 6.46371C27.1682 6.46371 27.7838 6.09787 28.4516 6.2053C29.5346 6.37951 30.6438 6.4521 31.6861 6.80342C32.2402 7.00097 32.7544 7.29596 33.2047 7.67448C34.2151 8.50488 35.2284 9.35561 35.9223 10.7841Z" fill="#FDFDFD"/>
<path d="M84.5899 12.4498C84.2792 13.4282 83.6608 14.1135 83.2252 14.9642C82.1509 14.5258 81.0621 13.8812 79.9152 14.7726V15.3533C80.3009 15.7535 80.8145 16.0062 81.367 16.0675C82.8855 16.1692 84.1137 16.7586 84.8512 18.3236C84.8512 18.7243 84.8164 19.2556 84.8512 19.7753C84.9673 21.3171 84.1137 22.2811 82.842 22.8153C81.2828 23.4744 79.6917 23.939 77.906 23.3699C77.0349 23.094 76.1639 22.9518 75.2928 22.4146C75.0722 21.1835 75.8329 20.3822 76.4833 19.5953C77.877 20.1557 79.0964 21.2997 80.7398 20.3125V19.4095C80.4814 18.7736 79.7178 19.1714 79.4129 18.6865C77.906 18.6575 76.7562 17.9548 75.8329 16.7528C75.8589 16.1916 75.854 15.6294 75.8184 15.0687C75.7891 14.6961 75.9011 14.3261 76.132 14.0322C77.064 12.6588 78.2747 11.7297 80.0227 11.7094C80.5076 11.7094 80.9924 11.7413 81.4744 11.7094C82.5626 11.6507 83.6445 11.9078 84.5899 12.4498Z" fill="#FDFDFD"/>
<path d="M67.9855 22.8769V15.6994C67.6952 14.9735 66.8793 15.4439 66.5977 14.7412V12.4852C66.8503 11.7767 67.5094 12.1455 68.0059 11.9481V8.96614L68.4036 8.56836H71.6788L72.0708 8.96033V11.9568H74.3471V15.1651H72.5499L72.094 15.621V22.8798L71.6265 23.3472C70.6074 23.2659 69.4721 23.4692 68.3456 23.2224C68.2091 23.1963 68.1336 23.0279 67.9855 22.8769Z" fill="#FBFCFC"/>
<path d="M105.31 26.0014C103.106 25.6878 100.859 25.9608 98.6115 25.7111C95.9809 25.4207 93.2951 25.5891 90.6384 25.6617C87.9817 25.7343 85.4121 25.4323 82.7699 25.8911C81.3617 26.1379 79.8664 25.9985 78.4146 25.9172C76.9629 25.8359 75.6185 26.3469 74.1784 26.254C73.1622 26.1901 72.1459 26.1146 71.0949 26.4747C70.4474 26.6983 69.6431 26.5995 68.9346 26.495C68.1449 26.3789 67.4829 26.9073 66.728 26.8144C65.0614 26.6111 63.4383 27.279 61.7717 27.1047C60.9297 27.5258 60.0296 27.3777 59.1353 27.3951C59.0395 27.3951 58.9262 27.3632 58.8449 27.3951C57.8664 27.8945 56.766 27.8626 55.7411 27.9148C54.5158 27.9787 53.3341 28.4752 52.0914 28.2603C52.0449 28.2603 51.9723 28.2371 51.9491 28.2603C51.5687 28.661 51.0548 28.6233 50.6193 28.5246C50.0386 28.3939 49.6582 28.8439 49.1385 28.8498C48.4475 28.8498 47.7738 28.7917 47.0625 29.0849C46.4556 29.3346 45.6601 28.9717 45.03 29.4188C43.436 29.3666 41.9349 30.075 40.3379 29.9995C40.1524 29.9836 39.9672 30.034 39.8153 30.1418C39.3101 30.4902 38.5958 30.0721 38.1051 30.5715C38.0587 30.6209 37.9164 30.5919 37.8148 30.5715C36.9089 30.4293 36.093 31.0855 35.1784 30.8619C33.4682 31.5355 31.6158 31.5645 29.8417 31.9623C28.6803 32.2207 27.5625 32.7782 26.3227 32.604C25.9104 33.2515 25.1816 32.6998 24.6212 33.0744C24.1305 33.3996 23.3988 33.417 22.7659 33.4576C22.1776 33.5431 21.5957 33.6672 21.0238 33.8293C20.4431 33.9454 19.7404 33.9164 19.2207 34.3461H18.4048C18.2074 34.3461 18.0448 34.3839 18.0622 34.6365C17.7736 34.5913 17.4797 34.5913 17.1911 34.6365C15.6581 35.1591 14.0786 35.5075 12.5165 35.9198C11.4683 36.1898 10.4463 36.6138 9.34292 36.6573C9.30309 36.6494 9.26191 36.6514 9.22304 36.6631C9.18416 36.6749 9.1488 36.6961 9.12008 36.7248C9.09136 36.7535 9.07017 36.7889 9.05839 36.8278C9.04662 36.8666 9.04462 36.9078 9.05257 36.9477H8.76222C8.3325 36.8983 7.96085 37.1596 7.57759 37.209C5.95452 37.4151 4.49115 38.112 2.95519 38.5272C2.95519 38.7188 2.93196 38.8669 2.85938 38.8175C3.54751 39.195 3.84076 38.7188 4.25016 38.6723C5.64675 38.5185 6.94752 37.8942 8.35573 37.7839C8.59672 37.1741 9.42422 37.9203 9.63327 37.2322H9.92363C10.1443 37.1886 10.4782 37.3774 10.5043 36.9419C11.2563 37.0173 11.9212 36.4599 12.6878 36.6515C13.0885 36.1289 13.7737 36.605 14.125 36.3234C14.7347 35.8327 15.5593 36.3989 16.0762 35.7863C16.7817 35.8617 17.3886 35.2868 18.1086 35.4959C18.2364 35.5307 18.367 35.3972 18.3322 35.2055H19.151C19.3484 35.2055 19.511 35.1678 19.4936 34.9152C20.5185 34.9326 21.4651 34.4593 22.4494 34.381C23.2449 34.3171 23.997 34.0645 24.7722 33.9774C25.4981 33.899 26.2791 33.6609 27.0166 33.5128C28.7181 33.1673 30.4457 32.9147 32.1645 32.6156C33.5263 32.3804 34.8851 32.1075 36.2672 31.9536C36.8944 31.8839 37.629 31.9246 38.1574 31.6633C38.6225 31.4383 39.1466 31.3652 39.6556 31.4542C40.2363 31.5326 40.5702 30.9984 41.1393 31.1203C42.08 31.3236 42.9569 30.6296 43.918 30.8445C44.548 30.3567 45.3378 30.7545 45.9504 30.5106C46.3639 30.2997 46.8324 30.2216 47.2919 30.287C47.8726 30.4293 48.2558 29.8921 48.7726 29.9792C49.9341 30.1738 50.9909 29.5089 52.1349 29.6889C52.2307 29.6889 52.373 29.7324 52.4253 29.6889C52.9479 29.1256 53.6244 29.3985 54.1964 29.4392C54.8903 29.503 55.4304 29.0211 56.1127 29.1053C57.4396 29.265 58.7259 28.603 60.0528 28.8149C60.0993 28.8149 60.1689 28.8381 60.1951 28.8149C60.7758 28.2981 61.4842 28.4897 62.1056 28.5594C62.8053 28.6378 63.3657 28.24 64.019 28.2284C65.0038 28.2513 65.9884 28.1735 66.9574 27.9961C68.0346 27.758 69.1873 27.9352 70.3167 27.6913C71.3068 27.4764 72.3492 27.6158 73.3915 27.4009C74.6691 27.1541 76.0047 27.3167 77.3316 27.1106C78.9547 26.8492 80.6271 27.1454 82.2908 26.8202C83.4522 26.5908 84.7007 26.7825 85.9086 26.7737C87.1337 26.7938 88.3583 26.7122 89.5699 26.5298C90.7313 26.3266 91.9798 26.4863 93.1906 26.4863C98.657 26.4863 104.122 26.4863 109.587 26.4863C109.831 26.4863 110.167 26.6779 110.391 26.2337C108.692 26.1466 107 26.2424 105.31 26.0014ZM17.2056 35.101C17.2056 35.101 17.2056 35.1213 17.2056 35.1301V35.101Z" fill="#E6B125"/>
<path d="M49.4629 12.7148C48.9228 12.4245 48.3015 12.1748 47.8311 11.7538C46.0657 11.6347 44.3033 11.5592 42.7383 13.0139V5.46475L42.2883 5.01471C41.1269 5.19472 39.8784 4.72435 38.7344 5.28764V22.9613L39.0654 23.2923H42.2592C42.8399 23.0542 42.6657 22.5926 42.8399 22.0699C43.4555 23.0891 44.4282 23.452 45.337 23.5856C47.7237 23.9398 49.7416 22.7929 51.1266 20.7082C51.6247 19.9841 51.938 19.1491 52.0392 18.2761C52.1404 17.403 52.0265 16.5185 51.7073 15.6996C51.2834 14.5179 50.7027 13.4001 49.4629 12.7148ZM47.6743 18.3912C47.05 20.1043 45.7754 20.3017 44.6837 20.1565C43.6297 19.8662 43.2319 19.2855 42.9183 18.9951C42.6842 18.6049 42.5578 18.1595 42.5522 17.7045C42.5466 17.2494 42.6619 16.801 42.8864 16.4052L44.1814 15.2148C45.5228 15.0957 46.9891 15.0405 47.6656 16.9569L47.6743 18.3912Z" fill="#FDFDFD"/>
<path d="M65.6839 17.1305C65.6984 15.0254 64.7141 13.5708 62.8995 12.5226C61.7119 11.8374 60.4924 11.698 59.1771 11.6922C58.0277 11.6741 56.8958 11.9756 55.9078 12.5632C55.0426 13.0458 54.3188 13.7465 53.8085 14.5957C53.2278 15.6206 52.9723 17.5399 53.2278 18.8232C53.4659 20.0311 53.9131 21.2215 54.97 22.0171C56.3085 23.0246 57.8735 23.4456 59.5169 23.6314C60.3879 23.7301 61.2009 23.463 61.9965 23.283C62.6956 23.1252 63.3512 22.8149 63.9164 22.3742C64.4816 21.9335 64.9424 21.3733 65.2658 20.7337C65.3926 20.4534 65.4232 20.139 65.3529 19.8394H61.7526C61.0064 20.8731 59.9088 20.7482 58.8636 20.6902C57.5657 19.912 57.377 19.6304 57.3363 18.3674H65.6839C65.6839 17.9028 65.681 17.5224 65.6839 17.1305ZM61.5319 16.0533H57.6731C57.4321 15.8326 57.6412 15.5713 57.5309 15.3738L58.5703 14.3344C59.813 14.3344 61.1486 14.0876 61.9094 15.4145C61.9384 15.7832 61.6074 15.8268 61.5319 16.0533Z" fill="#FCFCFC"/>
<path d="M16.0195 12.9061C16.0195 12.7029 15.8395 12.5054 15.7291 12.3022C15.7814 11.0914 15.3052 9.97938 14.9974 8.84991C14.4135 6.78143 13.487 4.82543 12.2565 3.06321C11.6758 2.19215 11.0574 1.34723 10.4622 0.484887C10.3547 0.336808 10.2618 0.180018 10.137 0C9.80886 0.432624 9.82048 0.894282 9.95694 1.0772C10.1433 1.35355 10.2595 1.67119 10.2955 2.00258C10.3314 2.33398 10.2859 2.66913 10.1631 2.97901C9.925 3.68456 9.98017 4.35527 9.92791 5.0434C9.84661 5.07534 9.69853 5.10147 9.69272 5.14503C9.49238 6.57646 8.6823 7.63914 7.68059 8.62924C7.14634 9.15188 6.51918 9.59611 6.15334 10.2842C4.00183 11.1843 2.51523 12.8974 0.927013 14.5031V15.2202C0.317275 15.3886 0.845714 15.9693 0.590205 16.2597C0.143064 16.7591 0.241783 17.4211 0.392766 17.8711C0.895074 19.4158 1.42642 20.9866 2.96528 21.8838C3.15691 22.3338 3.6447 22.5313 3.98441 22.6997C4.98322 23.1904 5.99074 23.742 7.1957 23.6404C8.00578 23.5707 8.82457 23.6404 9.64046 23.6404C10.4667 23.4643 11.2636 23.171 12.0068 22.7694C12.1392 22.7278 12.2585 22.6524 12.3527 22.5505C12.4469 22.4486 12.5129 22.3239 12.544 22.1887C12.5838 22.1966 12.625 22.1946 12.6639 22.1828C12.7027 22.1711 12.7381 22.1499 12.7668 22.1211C12.7955 22.0924 12.8167 22.0571 12.8285 22.0182C12.8403 21.9793 12.8423 21.9381 12.8343 21.8983C12.8742 21.9063 12.9153 21.9043 12.9542 21.8925C12.9931 21.8807 13.0284 21.8595 13.0572 21.8308C13.0859 21.8021 13.1071 21.7667 13.1189 21.7278C13.1306 21.689 13.1326 21.6478 13.1247 21.6079C15.0526 20.4669 15.5781 18.478 15.9846 16.5239C16.2343 15.3538 16.0456 14.1082 16.0195 12.9061ZM10.0121 5.89994L9.93371 5.91446V5.87381L10.0121 5.89994Z" fill="#FCD318"/>
<path d="M91.677 14.0221C91.737 13.7182 91.5735 13.4831 91.1863 13.3166L90.5243 13.0437C89.5971 12.6275 89.1558 12.0603 89.2003 11.3422C89.2179 11.0231 89.3369 10.7179 89.54 10.4712C89.7719 10.1977 90.0726 9.99124 90.4111 9.87303C90.7927 9.72763 91.199 9.65762 91.6073 9.66688C92.1154 9.65208 92.6106 9.82819 92.9952 10.1605C93.1728 10.3291 93.3115 10.5344 93.4018 10.762C93.492 10.9896 93.5316 11.2342 93.5178 11.4787H92.1474C92.1665 11.2909 92.1203 11.1022 92.0167 10.9444C91.9516 10.872 91.8704 10.8158 91.7796 10.7805C91.6889 10.7452 91.591 10.7317 91.4941 10.7412C91.2781 10.7322 91.0645 10.7889 90.8814 10.9038C90.7998 10.9506 90.7292 11.0146 90.6746 11.0913C90.62 11.168 90.5826 11.2555 90.565 11.348C90.5146 11.6171 90.714 11.8377 91.1631 12.01C91.5018 12.131 91.83 12.2796 92.1445 12.4543C92.4319 12.5954 92.6712 12.8185 92.8319 13.0955C92.9926 13.3725 93.0676 13.6909 93.0475 14.0105C93.0321 14.3338 92.9186 14.6447 92.7223 14.9019C92.5076 15.1654 92.2257 15.3661 91.9064 15.4826C91.5362 15.6251 91.1415 15.6932 90.745 15.683C90.4487 15.6795 90.1547 15.6296 89.8739 15.5349C89.6153 15.4479 89.3778 15.3074 89.1771 15.1226C88.9824 14.941 88.8309 14.7183 88.7334 14.4706C88.6359 14.223 88.5951 13.9566 88.6138 13.6911H89.9843C89.9524 13.9325 90.0148 14.1769 90.1585 14.3735C90.2456 14.4584 90.3503 14.5232 90.4652 14.5633C90.58 14.6034 90.7023 14.6179 90.8234 14.6058C91.0288 14.6135 91.2316 14.5578 91.4041 14.4461C91.5474 14.3463 91.6455 14.1939 91.677 14.0221Z" fill="#FDFDFD"/>
<path d="M95.2325 13.6178L94.887 15.6125H93.5078L94.524 9.74163H96.632C96.9121 9.72589 97.1925 9.76577 97.4572 9.85896C97.7218 9.95215 97.9653 10.0968 98.1738 10.2846C98.3597 10.4655 98.501 10.6872 98.5867 10.932C98.6723 11.1769 98.6999 11.4383 98.6674 11.6957C98.6433 12.068 98.5111 12.4253 98.287 12.7235C98.0605 13.0183 97.76 13.2477 97.4159 13.3884C97.03 13.5461 96.6162 13.6241 96.1994 13.6178H95.2325ZM95.4212 12.529H96.2516C96.4007 12.5382 96.55 12.5133 96.688 12.4561C96.826 12.3988 96.9492 12.3109 97.048 12.1988C97.1469 12.0868 97.2188 11.9537 97.2585 11.8097C97.2981 11.6656 97.3043 11.5144 97.2766 11.3676C97.2623 11.2195 97.1953 11.0814 97.0878 10.9785C96.9743 10.879 96.8294 10.8225 96.6784 10.8188H95.7145L95.4212 12.529Z" fill="#FDFDFD"/>
<path d="M101.185 15.6776C100.914 15.6859 100.644 15.6386 100.392 15.5388C100.14 15.4389 99.9106 15.2885 99.7187 15.0969C99.333 14.6649 99.112 14.1107 99.0944 13.5319C99.0709 13.1508 99.0963 12.7683 99.1699 12.3937C99.2428 11.9715 99.3829 11.5636 99.5851 11.1859C99.7711 10.8331 100.025 10.5203 100.331 10.2654C100.813 9.86025 101.427 9.64724 102.056 9.66732C102.426 9.67091 102.788 9.771 103.107 9.95767C103.413 10.1399 103.662 10.4032 103.827 10.7184C104.012 11.0677 104.119 11.4531 104.141 11.8479C104.16 12.1886 104.141 12.5303 104.086 12.867C104.029 13.2427 103.921 13.609 103.766 13.9558C103.619 14.2916 103.416 14.6006 103.168 14.8704C102.922 15.1345 102.626 15.3476 102.297 15.4976C101.945 15.6413 101.565 15.7029 101.185 15.6776ZM102.762 11.813C102.734 11.1413 102.474 10.7919 101.981 10.7648C101.795 10.7511 101.609 10.7856 101.44 10.865C101.272 10.9443 101.127 11.0659 101.019 11.2178C100.732 11.6401 100.56 12.1308 100.523 12.6405C100.477 12.9382 100.459 13.2395 100.468 13.5406C100.495 14.2239 100.758 14.5743 101.258 14.5917C101.419 14.6008 101.58 14.5726 101.729 14.5091C101.877 14.4457 102.009 14.3487 102.114 14.2258C102.38 13.9127 102.557 13.5335 102.625 13.1283C102.726 12.6973 102.771 12.2554 102.762 11.813Z" fill="#FDFDFD"/>
<path d="M106.837 13.536H106.07L105.707 15.612H104.328L105.344 9.74112H107.417C107.968 9.70538 108.513 9.87044 108.951 10.2057C109.129 10.3628 109.267 10.5615 109.351 10.7843C109.435 11.007 109.463 11.2471 109.432 11.4832C109.419 11.8633 109.292 12.2306 109.067 12.5372C108.829 12.8323 108.517 13.0596 108.164 13.1963L108.953 15.5481V15.6178H107.481L106.837 13.536ZM106.256 12.4472H107.063C107.269 12.453 107.471 12.3963 107.644 12.2846C107.805 12.1789 107.927 12.0241 107.992 11.8433C108.061 11.671 108.082 11.4835 108.053 11.3003C108.037 11.1616 107.967 11.0349 107.858 10.9466C107.75 10.8584 107.612 10.8155 107.473 10.827H106.529L106.256 12.4472Z" fill="#FDFDFD"/>
<path d="M114.704 10.8349H112.994L112.166 15.6111H110.784L111.615 10.832H109.934L110.128 9.74023H114.893L114.704 10.8349Z" fill="#FDFDFD"/>
<path d="M117.647 14.0222C117.707 13.7183 117.543 13.4831 117.156 13.3167L116.494 13.0437C115.567 12.6276 115.126 12.0604 115.17 11.3423C115.188 11.0232 115.307 10.718 115.51 10.4712C115.742 10.1978 116.042 9.99133 116.381 9.87311C116.762 9.72771 117.169 9.6577 117.577 9.66696C118.086 9.65143 118.582 9.82758 118.968 10.1606C119.145 10.3292 119.284 10.5344 119.374 10.7621C119.465 10.9897 119.504 11.2343 119.49 11.4788H118.12C118.138 11.2867 118.087 11.0945 117.978 10.9358C117.915 10.8634 117.836 10.8066 117.747 10.7698C117.658 10.733 117.562 10.7173 117.467 10.7238C117.251 10.7148 117.037 10.7715 116.854 10.8864C116.772 10.9348 116.701 11.0008 116.647 11.0795C116.592 11.1583 116.556 11.248 116.541 11.3423C116.49 11.6113 116.69 11.832 117.139 12.0043C117.477 12.1253 117.806 12.2739 118.12 12.4485C118.408 12.5905 118.647 12.8147 118.807 13.0928C118.968 13.3709 119.042 13.6904 119.02 14.0106C119.005 14.3339 118.891 14.6448 118.695 14.902C118.48 15.1655 118.198 15.3661 117.879 15.4827C117.509 15.6252 117.114 15.6933 116.718 15.683C116.421 15.6796 116.127 15.6297 115.847 15.535C115.588 15.448 115.35 15.3075 115.15 15.1227C114.955 14.9411 114.804 14.7184 114.706 14.4707C114.609 14.223 114.568 13.9567 114.586 13.6912H115.969C115.937 13.9326 115.999 14.177 116.143 14.3736C116.23 14.4585 116.335 14.5233 116.449 14.5634C116.564 14.6035 116.687 14.618 116.808 14.6058C117.013 14.6136 117.216 14.5579 117.388 14.4461C117.526 14.3437 117.619 14.1917 117.647 14.0222Z" fill="#FDFDFD"/>
<path d="M87.082 22.9803L88.0983 17.1094H89.9652C90.7027 17.1094 91.2524 17.2487 91.6144 17.5275C91.7914 17.6609 91.9303 17.8382 92.0175 18.042C92.1046 18.2458 92.1368 18.4688 92.1109 18.6889C92.0966 18.9858 91.9914 19.2711 91.8097 19.5064C91.6279 19.7416 91.3784 19.9153 91.0947 20.0042C91.3194 20.0819 91.5089 20.2374 91.6289 20.4426C91.7609 20.6731 91.8177 20.939 91.7915 21.2033C91.7859 21.4581 91.7226 21.7082 91.6065 21.935C91.4903 22.1618 91.3243 22.3594 91.1208 22.5128C90.624 22.8442 90.033 23.0052 89.4368 22.9716L87.082 22.9803ZM88.8967 20.4833L88.6499 21.8857H89.4774C89.7075 21.8939 89.9338 21.8266 90.122 21.694C90.2025 21.6348 90.2705 21.5602 90.3218 21.4744C90.3732 21.3887 90.4069 21.2936 90.4211 21.1946C90.4966 20.7475 90.3243 20.5133 89.9042 20.492L88.8967 20.4833ZM89.0535 19.557H89.6952C90.2953 19.5435 90.6311 19.3131 90.7027 18.866C90.7743 18.4189 90.5459 18.1963 90.0175 18.1982H89.2829L89.0535 19.557Z" fill="#FDFDFD"/>
<path d="M96.2493 20.4891H94.092L93.8452 21.8915H96.3974L96.2087 22.9803H92.2773L93.2936 17.1094H97.2424L97.0536 18.2011H94.4985L94.2692 19.4525H96.4294L96.2493 20.4891Z" fill="#FDFDFD"/>
<path d="M102.173 18.205H100.463L99.6469 22.9813H98.2648L99.0952 18.205H97.4141L97.6086 17.1133H102.373L102.173 18.205Z" fill="#FDFDFD"/>
<path d="M107.345 18.205H105.635L104.807 22.9842H103.425L104.255 18.205H102.574L102.769 17.1133H107.533L107.345 18.205Z" fill="#FDFDFD"/>
<path d="M108.598 22.9803H107.219L108.238 17.1094H109.614L108.598 22.9803Z" fill="#FDFDFD"/>
<path d="M114.344 22.9803H113.008L111.606 19.2754L110.961 22.9803H109.582L110.598 17.1094H111.945L113.345 20.8143L113.987 17.1094H115.366L114.344 22.9803Z" fill="#FDFDFD"/>
<path d="M120.117 22.2611C119.856 22.5446 119.522 22.7514 119.153 22.8592C118.7 23.005 118.226 23.0727 117.75 23.0595C117.306 23.0686 116.871 22.9386 116.505 22.6879C116.16 22.4373 115.905 22.0819 115.779 21.6746C115.632 21.2054 115.592 20.7093 115.663 20.2228L115.694 19.9818C115.771 19.1744 116.108 18.4139 116.656 17.8158C116.899 17.5578 117.194 17.3549 117.522 17.2207C117.85 17.0865 118.203 17.0241 118.557 17.0376C119.111 17.0109 119.653 17.2004 120.07 17.5661C120.444 17.9682 120.652 18.4975 120.651 19.0469H119.327C119.331 18.7985 119.249 18.5564 119.094 18.3616C119.018 18.2861 118.927 18.2268 118.828 18.1874C118.728 18.1479 118.621 18.1292 118.514 18.1323C118.336 18.1231 118.159 18.1584 117.998 18.235C117.837 18.3115 117.698 18.4269 117.593 18.5707C117.319 18.9567 117.148 19.4065 117.097 19.8773C117.029 20.2487 117.001 20.6265 117.016 21.0038C117.056 21.6504 117.347 21.9785 117.887 21.9881C118.195 22.0014 118.499 21.9182 118.758 21.75L118.938 20.8354H117.982L118.151 19.8628H120.474L120.117 22.2611Z" fill="#FDFDFD"/>
</g>
<defs>
<clipPath id="clip0_118_962">
<rect width="120.388" height="39" fill="white" transform="translate(0.257812)"/>
</clipPath>
</defs>
</svg>
