<svg width="35" height="36" viewBox="0 0 35 36" fill="none" xmlns="http://www.w3.org/2000/svg">
<path d="M17.8536 10.8334V29.411M17.8536 10.8334H12.8009C12.0564 10.8334 11.3424 10.5323 10.816 9.99625C10.2896 9.46026 9.99385 8.73329 9.99385 7.97528C9.99385 7.21727 10.2896 6.4903 10.816 5.95431C11.3424 5.4183 12.0564 5.11719 12.8009 5.11719C16.7308 5.11719 17.8536 10.8334 17.8536 10.8334ZM17.8536 10.8334H22.9063C23.6508 10.8334 24.3648 10.5323 24.8912 9.99625C25.4175 9.46026 25.7134 8.73329 25.7134 7.97528C25.7134 7.21727 25.4175 6.4903 24.8912 5.95431C24.3648 5.4183 23.6508 5.11719 22.9063 5.11719C18.9764 5.11719 17.8536 10.8334 17.8536 10.8334ZM7.85028 17.9786H27.8569V26.2671C27.8569 27.8677 27.8569 28.6682 27.5454 29.2795C27.2715 29.8173 26.8342 30.2545 26.2964 30.5285C25.6851 30.84 24.8847 30.84 23.284 30.84H12.4232C10.8225 30.84 10.0222 30.84 9.41083 30.5285C8.87303 30.2545 8.4358 29.8173 8.1618 29.2795C7.85028 28.6682 7.85028 27.8677 7.85028 26.2671V17.9786ZM7.27866 17.9786H28.4285C29.229 17.9786 29.6291 17.9786 29.9348 17.8228C30.2037 17.6858 30.4222 17.4673 30.5593 17.1983C30.715 16.8927 30.715 16.4925 30.715 15.6921V13.1198C30.715 12.3195 30.715 11.9193 30.5593 11.6136C30.4222 11.3448 30.2037 11.1261 29.9348 10.9891C29.6291 10.8334 29.229 10.8334 28.4285 10.8334H7.27866C6.47832 10.8334 6.07815 10.8334 5.77246 10.9891C5.50357 11.1261 5.28496 11.3448 5.14794 11.6136C4.99219 11.9193 4.99219 12.3195 4.99219 13.1198V15.6921C4.99219 16.4925 4.99219 16.8927 5.14794 17.1983C5.28496 17.4673 5.50357 17.6858 5.77246 17.8228C6.07815 17.9786 6.47832 17.9786 7.27866 17.9786Z" stroke="white" stroke-width="2.85809" stroke-linecap="round" stroke-linejoin="round"/>
</svg>
