<svg width="101" height="38" viewBox="0 0 101 38" fill="none" xmlns="http://www.w3.org/2000/svg">
<path fill-rule="evenodd" clip-rule="evenodd" d="M0 8.85955C0.08238 8.49983 0.15432 8.13723 0.24862 7.78071C1.08226 4.62789 3.59821 3.77449 6.13407 3.99822C7.07553 4.08126 7.91215 4.44173 8.602 5.28093C8.6206 4.89666 8.6339 4.61049 8.6491 4.30852C8.7227 4.29193 8.7974 4.28055 8.8726 4.27447C10.0951 4.27265 11.3176 4.27308 12.6026 4.27308C12.6123 4.48443 12.6284 4.67176 12.6285 4.85909C12.63 8.27382 12.6287 11.6886 12.6247 15.1034C12.6272 15.6367 12.59 16.1694 12.5136 16.6972C12.2403 18.4807 11.1288 19.5337 9.4614 20.0115C7.26905 20.6435 4.94814 20.6767 2.7387 20.1076C1.0133 19.6734 0.29087 18.7571 0.0838699 16.9532C0.0683299 16.8154 0.02863 16.6808 0 16.5449V16.2247H4.2173C4.32182 17.2135 4.56202 17.5303 5.48284 17.6511C5.99369 17.718 6.53881 17.6457 7.05073 17.545C7.33592 17.5015 7.59775 17.3616 7.79291 17.1486C7.98807 16.9355 8.1049 16.662 8.1239 16.3733C8.1906 15.7528 8.1873 15.1244 8.221 14.3541C7.56776 15.1132 6.82957 15.3386 6.04712 15.4299C3.2088 15.7615 1.06204 14.5885 0.25745 11.8617C0.1524 11.5067 0.08514 11.1415 0 10.7809V8.85955ZM8.1349 9.8752C8.0806 9.4111 8.0599 9.0557 7.99442 8.70883C7.8219 7.79491 7.2986 7.28682 6.50539 7.2326C5.55499 7.1677 4.87705 7.59712 4.5947 8.49748C4.31189 9.3649 4.29923 10.2982 4.55841 11.1731C4.79425 11.9683 5.33533 12.363 6.16546 12.3813C7.01007 12.4 7.6364 12.0099 7.87735 11.231C8.0225 10.7632 8.0645 10.2632 8.1349 9.8752ZM75.5637 38C75.5352 37.844 75.5163 37.6864 75.5072 37.5281C75.5042 32.479 75.5038 27.4298 75.506 22.3806C75.506 22.2586 75.523 22.1367 75.5353 21.973H79.9993C80.0159 22.2142 80.0312 22.4381 80.0513 22.73C81.0609 21.78 82.2468 21.5651 83.5217 21.6468C85.4029 21.7674 86.7387 22.7142 87.4637 24.4278C88.3643 26.5558 88.4184 28.7575 87.6055 30.9208C86.4545 33.9843 82.7418 35.0153 80.0336 32.9696V38H75.5637ZM79.9666 27.8478C80.0227 28.3404 80.0381 28.8047 80.1343 29.2516C80.3304 30.1626 80.9276 30.6875 81.7177 30.705C82.5266 30.7228 83.2914 30.1969 83.4013 29.3066C83.5179 28.3277 83.5146 27.3381 83.3914 26.3599C83.2885 25.529 82.6218 25.0642 81.8788 25.0486C81.0504 25.0312 80.3752 25.512 80.1648 26.3531C80.0414 26.8455 80.0267 27.3662 79.9666 27.8478ZM53.3203 0V4.92228C53.3784 4.93357 53.4383 4.93262 53.4961 4.91951C56.4474 2.87701 60.1193 4.1958 61.0498 7.68123C61.5686 9.5496 61.4311 11.54 60.6604 13.3188C59.6241 15.7404 57.0878 16.9114 54.6046 16.1062C54.1306 15.9526 53.7028 15.6557 53.2317 15.4132C53.2191 15.5457 53.1998 15.7441 53.1768 15.9896H48.7439V0H53.3203ZM56.8385 10.1993L56.7881 10.1862C56.7625 9.8149 56.7466 9.4425 56.7069 9.0725C56.6824 8.89694 56.6393 8.72451 56.5784 8.55811C56.3215 7.7852 55.7397 7.30006 55.0535 7.27796C54.3554 7.25544 53.6877 7.73396 53.4402 8.51616C53.0975 9.5883 53.102 10.7417 53.453 11.8112C53.5481 12.1382 53.7475 12.425 54.0207 12.6274C54.2939 12.8299 54.6258 12.9368 54.9654 12.932C55.6983 12.9383 56.2767 12.556 56.516 11.8023C56.6799 11.2858 56.7349 10.7348 56.8385 10.1993ZM91.2085 38L89.7653 37.7673V34.4981C90.2095 34.4981 90.6614 34.5033 91.1133 34.4971C91.9793 34.4851 92.1579 34.2424 91.8796 33.4167C90.651 29.7745 89.4188 26.1334 88.1831 22.4935C88.1282 22.3315 88.0767 22.1684 87.9983 21.9295H90.65C91.1995 21.9295 91.75 21.9502 92.2981 21.9225C92.6813 21.903 92.846 22.0112 92.9291 22.4211C93.3686 24.5929 93.8474 26.7567 94.315 28.9228C94.3475 29.0735 94.3986 29.2202 94.4784 29.4992C94.754 28.3101 95.0044 27.2443 95.2475 26.1767C95.5387 24.8978 95.8328 23.6195 96.1051 22.3364C96.1744 22.0099 96.3259 21.9179 96.6464 21.9222C97.9048 21.939 99.163 21.931 100.422 21.9269C100.615 21.9262 100.807 21.8973 101 21.8815V22.095C100.95 22.1857 100.906 22.2792 100.868 22.3751C99.527 26.3105 98.197 30.2499 96.839 34.1796C96.5816 34.9317 96.2603 35.6602 95.8786 36.3571C95.6689 36.7405 95.3781 37.0732 95.0266 37.3318C94.675 37.5904 94.2713 37.7687 93.8437 37.8541C93.5711 37.9149 93.2934 37.9514 93.0179 37.9991L91.2085 38ZM66.7302 0C66.7408 0.14122 66.7616 0.28244 66.7621 0.42366C66.7637 5.47303 66.7637 10.5224 66.7621 15.5717C66.7621 15.6955 66.7515 15.8193 66.7433 15.9888H62.1538V0H66.7302ZM72.7966 0V3.09476H68.1137V0H72.7966ZM47.3403 16.0082H42.7249V15.4153C42.7249 13.6007 42.7246 11.7861 42.724 9.9715C42.724 9.758 42.7222 9.5445 42.7041 9.3319C42.6173 8.31464 42.0833 7.84006 41.0634 7.86579C40.0894 7.89044 39.4877 8.45457 39.4782 9.4221C39.4587 11.4143 39.4686 13.4068 39.4665 15.3996C39.4665 15.5902 39.4665 15.781 39.4665 16.003H34.8201C34.8201 15.8109 34.8201 15.6239 34.8201 15.4373C34.8182 13.4626 34.8242 11.4878 34.8113 9.5131C34.8048 8.51937 34.3142 7.95716 33.4334 7.87881C32.4213 7.78893 31.7519 8.28592 31.5734 9.2786C31.5345 9.5241 31.5173 9.7724 31.5218 10.0209C31.5178 11.9946 31.5196 13.9682 31.5196 15.9885H26.9338V4.29848H31.3536V5.85691C32.3753 4.33211 33.7552 3.9552 35.312 4.02095C36.8644 4.08713 38.2 4.56918 38.9883 6.09932C39.1949 5.83364 39.367 5.57863 39.5721 5.35405C40.7618 4.05063 42.3001 3.88838 43.9252 4.05863C45.5598 4.22942 46.7961 5.28435 47.1953 6.83392C47.278 7.12473 47.3246 7.42466 47.3341 7.72692C47.3447 10.4646 47.3403 13.2025 47.3403 16.0082ZM87.5439 16.2241H91.6414C91.6772 16.3395 91.7042 16.4575 91.7222 16.577C91.7647 17.1342 92.0925 17.5086 92.5993 17.5725C93.2244 17.6536 93.8576 17.6472 94.4809 17.5534C95.1318 17.451 95.5388 16.9877 95.5984 16.303C95.6505 15.7084 95.6608 15.1102 95.6942 14.4172C94.3447 15.6524 92.8168 15.6089 91.2795 15.3421C90.0355 15.126 89.0705 14.4144 88.3818 13.3516C87.0735 11.3322 87.1479 7.85746 88.5703 5.9169C89.8209 4.21053 91.6232 3.84782 93.584 3.99865C94.0695 4.02355 94.544 4.15283 94.9753 4.37771C95.4067 4.60259 95.7847 4.91783 96.084 5.30207V4.3051H100.022C100.047 4.39926 100.063 4.49546 100.071 4.59256C100.064 8.36171 100.081 12.1312 100.035 15.8999C100.009 18.0782 99.006 19.3978 96.9253 20.0073C94.7017 20.662 92.3407 20.6851 90.1048 20.0742C88.2523 19.5808 87.3682 18.2126 87.5439 16.2241ZM95.591 9.771C95.5541 9.4541 95.5257 9.1181 95.474 8.78568C95.3284 7.84636 94.7997 7.29728 93.9956 7.23377C93.0183 7.15649 92.2828 7.57171 92.0769 8.52855C91.9215 9.3053 91.8853 10.1013 91.9695 10.889C92.0653 11.8808 92.7031 12.3706 93.6548 12.382C94.5988 12.3934 95.2683 11.8526 95.4517 10.903C95.5223 10.5385 95.5442 10.1644 95.591 9.771ZM39.4874 33.8181H35.5977V25.2917H31.4114V33.7911H26.8802V17.7206H31.4799V22.9515C31.5418 22.95 31.6026 22.9356 31.6586 22.9093C32.8719 21.2838 35.8189 21.0728 37.5265 21.97C38.9596 22.7233 39.4507 24.0067 39.4741 25.5046C39.5131 28.047 39.4868 30.5903 39.488 33.1333C39.4876 33.3446 39.4874 33.5554 39.4874 33.8181ZM25.8044 16.0112H21.4947C21.4671 15.7551 21.4415 15.5188 21.4084 15.2099C20.1298 16.0877 18.7454 16.3671 17.2868 16.32C15.4526 16.2611 14.094 15.3018 13.6243 13.7644C12.8997 11.3903 14.2054 9.3036 16.7965 8.76679C18.06 8.50495 19.3416 8.33139 20.614 8.11172C20.7973 8.07154 20.9784 8.02216 21.1568 7.96378C21.226 7.21029 20.9955 6.80349 20.3309 6.68939C19.8792 6.61738 19.4184 6.62522 18.9695 6.71255C18.7307 6.7577 18.4011 6.99627 18.3461 7.20847C18.2104 7.73225 17.8672 7.73001 17.4712 7.72905C16.2702 7.72627 15.0693 7.72809 13.862 7.72809C14.0749 5.88082 15.1876 4.77679 16.9208 4.28653C18.8076 3.7539 20.7998 3.72004 22.7035 4.18822C24.6405 4.6518 25.5441 5.80002 25.5893 7.85266C25.6376 10.0567 25.5976 12.2625 25.6212 14.4673C25.6278 14.9685 25.7374 15.4687 25.8044 16.0112ZM21.1428 10.6315C20.3955 10.8449 19.652 11.0541 18.9108 11.2712C18.7407 11.3199 18.5756 11.3845 18.4175 11.4642C17.8887 11.7356 17.6369 12.1774 17.7783 12.617C17.9486 13.1449 18.3823 13.2788 18.873 13.2788C20.2658 13.2771 21.3119 12.0694 21.1428 10.6315ZM74.3689 33.692H70.0667C70.0498 33.4267 70.0348 33.1837 70.0252 33.0392C69.147 33.3216 68.27 33.7304 67.3532 33.8624C66.4608 33.9873 65.5534 33.9531 64.6728 33.7613C63.1585 33.426 62.1554 32.1009 62.0527 30.5758C61.9356 28.8415 62.7011 27.3842 64.2592 26.8211C65.3605 26.4228 66.5581 26.2909 67.7146 26.049C68.2858 25.9296 68.8595 25.8201 69.435 25.7255C69.8193 25.6623 69.9262 25.4266 69.7583 25.1297C69.6026 24.8542 69.3787 24.4786 69.1268 24.4252C68.5769 24.327 68.0148 24.3187 67.4623 24.4007C67.2555 24.4261 66.9804 24.7023 66.9163 24.918C66.7834 25.3649 66.5141 25.4103 66.1287 25.4051C64.9261 25.3893 63.7235 25.3994 62.4767 25.3994C62.5092 24.8327 62.6755 24.2819 62.9618 23.7923C63.2481 23.3028 63.6464 22.8884 64.1236 22.5834C65.0484 21.9637 66.0956 21.7269 67.1822 21.6278C68.6006 21.4984 70.0147 21.4847 71.4019 21.8762C73.2997 22.4117 74.1715 23.5444 74.1839 25.5119C74.1967 27.54 74.1751 29.5674 74.1994 31.5949C74.2076 32.2893 74.3088 32.9823 74.3689 33.692ZM69.7661 28.2627C68.8496 28.5444 67.9621 28.7803 67.1029 29.0939C66.5059 29.3119 66.2361 29.8013 66.3529 30.2296C66.4878 30.7246 66.9952 31.0102 67.6269 30.947C68.9681 30.8128 69.8952 29.6827 69.7661 28.2627ZM74.1084 4.28557H78.4127V5.78667C79.6716 4.16591 81.264 3.76627 83.0424 4.02885C85.2135 4.34908 86.4328 5.66744 86.496 7.88052C86.572 10.5454 86.5156 13.2142 86.5147 15.8813C86.5039 15.9248 86.4866 15.9664 86.4636 16.0048H81.9422C81.9329 15.7944 81.9177 15.6049 81.9175 15.4152C81.9157 13.4947 81.9336 11.574 81.9028 9.654C81.896 9.2278 81.8186 8.74192 81.5999 8.39341C81.2048 7.76363 80.5068 7.81284 79.8652 7.9087C79.286 7.99526 78.9073 8.36576 78.7709 8.9347C78.7013 9.2465 78.6678 9.5652 78.671 9.8847C78.6621 11.7162 78.6667 13.5477 78.6667 15.3793C78.6667 15.5722 78.6667 15.7652 78.6667 15.9959H74.1082L74.1084 4.28557ZM52.9984 28.6851H45.0675C44.9385 29.605 45.3654 30.4112 46.1131 30.7196C47.194 31.1652 48.0576 30.77 49.0604 29.3523L52.7938 30.9451C52.3889 31.707 51.8001 32.355 51.081 32.8297C48.762 34.4057 46.2444 34.6727 43.7105 33.551C41.2728 32.4719 40.3228 30.3236 40.2715 27.7611C40.2174 25.0606 41.6231 22.8862 43.9107 21.9714C46.5908 20.8998 49.6814 21.4635 51.4505 23.3569C52.4098 24.3838 52.8781 25.6311 52.9914 27.0145C53.0345 27.5408 52.9984 28.0737 52.9984 28.6851ZM45.0703 26.1446H48.2878C48.3517 25.2456 47.7943 24.5362 46.973 24.444C45.9586 24.3301 45.2118 24.9899 45.0703 26.1446ZM24.4594 18.5257V22.2022H26.3719V24.7512H24.3642C24.3642 25.6812 24.3675 26.5475 24.363 27.4138C24.36 28.0185 24.3372 28.6232 24.3397 29.2279C24.3434 30.1307 24.6927 30.4851 25.5942 30.4996C25.8399 30.5035 26.0864 30.4604 26.3753 30.4355V33.6093C24.8988 33.8387 23.4047 34.0218 21.9173 33.6802C20.4818 33.3505 19.7036 32.3266 19.697 30.8233C19.6892 29.0271 19.7269 27.2306 19.7444 25.4342C19.7462 25.2397 19.7444 25.0452 19.7444 24.7785H18.203V22.2139H19.7949V18.5257H24.4594ZM58.346 33.7013H53.7985V21.9811H58.1889C58.2024 22.2553 58.2158 22.5291 58.2349 22.9157C59.3354 21.9039 60.5976 21.6274 62.0052 21.6918V25.612C61.5921 25.612 61.1729 25.6 60.7547 25.6141C59.2216 25.6658 58.364 26.5302 58.3494 28.0674C58.334 29.7389 58.3457 31.4107 58.3456 33.0824L58.346 33.7013ZM68.1507 4.28599H72.7027V16.0102H68.1507V4.28599Z" fill="#A1BADC"/>
</svg>
