<svg width="97" height="40" viewBox="0 0 97 40" fill="none" xmlns="http://www.w3.org/2000/svg">
<path fill-rule="evenodd" clip-rule="evenodd" d="M16.233 0L32.3068 16.3125L16.1534 32.5455L0 16.3125L16.233 0ZM16.1534 35.4102L31.9089 19.1772H97V39.7867H9.1509V28.169L16.1534 35.4102ZM37.3199 34.6144H40.0254V23.9516H37.3199V34.6144ZM53.3142 34.694C54.2691 34.694 54.8261 34.6144 55.3035 34.4553C56.5767 33.9778 57.3724 32.9434 57.3724 31.5111C57.3724 30.1583 56.6563 29.283 55.1444 28.8056C56.0197 28.3281 56.5767 27.5324 56.5767 26.6571C56.5767 25.5431 55.781 24.5086 54.5874 24.1903C54.0304 23.9516 53.6325 23.9516 52.5185 23.9516H48.4602V34.694H53.3142ZM72.0139 32.5455L72.8893 34.6144H75.7539L70.9795 23.9516H67.9557L63.7383 34.6144H66.5234L67.3191 32.5455H72.0139ZM83.0747 34.3757C84.1091 34.7736 84.9844 34.9327 85.8597 34.9327C88.4061 34.9327 90.0771 33.6596 89.9975 31.8294C89.9975 30.2379 89.1222 29.2034 87.0533 28.4873L86.178 28.169C84.9844 27.7711 84.4274 27.3733 84.4274 26.8958C84.4274 26.4184 85.064 26.0205 86.0189 26.0205C86.9737 26.0205 88.0082 26.3388 89.2814 26.9754L89.5201 26.8958V24.7473C88.1674 24.1903 87.1329 23.9516 85.9393 23.9516C83.5521 23.9516 81.9606 25.1452 81.9606 26.9754C81.9606 27.6915 82.1993 28.4873 82.6768 28.9647C82.9155 29.283 83.2338 29.5217 83.6317 29.7605C84.0245 30.0224 84.4174 30.1765 84.9877 30.4003C85.1104 30.4484 85.2413 30.4998 85.3823 30.5562L85.9393 30.7949C86.9737 31.1928 87.3716 31.4315 87.3716 31.9885C87.3716 32.6251 86.8146 32.9434 85.7802 32.9434C85.1436 32.9434 84.507 32.7842 83.7908 32.5455C83.7674 32.5355 83.7442 32.5256 83.7213 32.5158C83.1997 32.2927 82.8058 32.1242 82.1198 31.5906V33.8983C82.2259 33.9513 82.2966 33.9955 82.3673 34.0397C82.5088 34.1282 82.6503 34.2166 83.0747 34.3757ZM52.4389 32.7047C54.1099 32.7047 54.6669 32.3864 54.6669 31.4315C54.6669 30.397 54.1099 30.0788 52.3593 30.1583H51.1657V32.7047H52.4389ZM52.1206 28.169C53.3938 28.169 53.8712 27.8507 53.8712 26.9754C53.8712 26.1797 53.3938 25.8614 52.1206 25.8614H51.0861V28.169H52.1206ZM71.2978 30.7153L69.6267 26.5775L68.0353 30.7153H71.2978ZM16.146 6.44546C16.3574 6.20402 16.5767 5.96964 16.8035 5.7428L17.2537 6.19293C17.0124 6.4342 16.7801 6.6844 16.5571 6.94289C16.9867 7.48496 17.3793 8.05413 17.7316 8.64751C18.0205 8.28142 18.3311 7.93208 18.6621 7.60116L19.0559 7.99503C18.6866 8.36437 18.3437 8.75782 18.0295 9.17286C18.4553 9.96011 18.8116 10.7866 19.0911 11.6461C19.506 10.8892 20.0163 10.2024 20.5998 9.61884L20.9374 9.95644C20.2779 10.6159 19.7161 11.4172 19.2886 12.3058C19.6315 13.5569 19.8138 14.8721 19.8138 16.2329C19.8138 17.6 19.6368 18.9148 19.3031 20.1567C19.7292 21.0291 20.2868 21.8265 20.9415 22.5139L20.5957 22.8432C20.0227 22.2415 19.5199 21.559 19.1088 20.8168C18.8403 21.6549 18.499 22.4566 18.0915 23.2149C18.3887 23.6001 18.7107 23.9664 19.0559 24.3116L18.6621 24.7054C18.3553 24.3987 18.066 24.0761 17.7952 23.739C17.4402 24.337 17.0426 24.9054 16.6062 25.4408C16.813 25.6713 17.0278 25.8945 17.2502 26.1102L16.807 26.5672C16.5944 26.3609 16.3883 26.1481 16.1892 25.9289C15.968 26.1763 15.738 26.4157 15.4997 26.6468L15.0565 26.1898C15.3034 25.9504 15.5409 25.7016 15.7686 25.444C15.3166 24.8981 14.9054 24.3172 14.5388 23.7051C14.2602 24.0545 13.9618 24.3884 13.6448 24.7054L13.251 24.3116C13.6059 23.9566 13.9364 23.5794 14.2405 23.1822C13.815 22.3975 13.4606 21.5661 13.1846 20.6955C12.7617 21.4847 12.2357 22.2088 11.6315 22.8432L11.2858 22.5139C11.9741 21.7912 12.5552 20.9468 12.9888 20.0216C12.6647 18.7961 12.4929 17.5001 12.4929 16.1533C12.4929 14.8667 12.6624 13.6057 12.9822 12.3975C12.5496 11.4724 11.972 10.6386 11.2899 9.95644L11.6275 9.61884C12.2308 10.2221 12.7557 10.9358 13.178 11.7232C13.4602 10.831 13.8252 9.97157 14.2649 9.1564C13.9541 8.74742 13.6154 8.35948 13.251 7.99503L13.6448 7.60116C13.9708 7.92712 14.277 8.27096 14.5623 8.63107C14.9129 8.04007 15.3038 7.47492 15.7317 6.94036C15.5132 6.68317 15.2857 6.4328 15.0497 6.18961L15.5065 5.74624C15.7269 5.97333 15.9402 6.20649 16.146 6.44546ZM13.3947 13.4402C13.2205 14.3236 13.1295 15.2316 13.1295 16.1533C13.1295 17.1269 13.223 18.0721 13.402 18.9809C13.6884 18.1078 13.8459 17.1822 13.8459 16.2331C13.8459 15.2751 13.6855 14.3292 13.3947 13.4402ZM13.5962 19.8282C14.0607 18.7112 14.3233 17.4929 14.3233 16.2331C14.3233 14.9684 14.0586 13.7242 13.5894 12.5917C13.85 11.5978 14.217 10.6409 14.6786 9.73776C15.1554 10.4546 15.5514 11.2273 15.8571 12.0446C15.4025 13.3274 15.1588 14.7102 15.1588 16.1533C15.1588 17.5964 15.4025 18.9792 15.8571 20.2621C15.5464 21.0926 15.1424 21.8772 14.6552 22.6039C14.2086 21.7331 13.852 20.8043 13.5962 19.8282ZM16.1855 24.9485C15.7286 24.3869 15.3163 23.787 14.9532 23.1533C15.424 22.4869 15.8266 21.7715 16.1534 21.0162C16.4861 21.7849 16.8971 22.5122 17.3787 23.1886C17.0266 23.8088 16.6274 24.3968 16.1855 24.9485ZM17.6747 22.6381C17.1772 21.9018 16.7653 21.1056 16.4498 20.262C16.9044 18.9792 17.1481 17.5964 17.1481 16.1533C17.1481 14.7102 16.9044 13.3274 16.4498 12.0446C16.753 11.2339 17.1451 10.4671 17.6168 9.75513C18.0619 10.6232 18.4196 11.5386 18.6797 12.4925C18.1845 13.6514 17.904 14.9313 17.904 16.2331C17.904 17.5479 18.19 18.8175 18.693 19.9739C18.4431 20.9089 18.1004 21.8001 17.6747 22.6381ZM16.591 16.1533C16.591 15.0409 16.4396 13.9667 16.1534 12.9506C15.8672 13.9667 15.7158 15.0409 15.7158 16.1533C15.7158 17.2657 15.8672 18.3399 16.1534 19.356C16.4396 18.3399 16.591 17.2657 16.591 16.1533ZM17.3185 9.20343C16.8628 9.85554 16.4722 10.554 16.1534 11.2904C15.8319 10.5474 15.4371 9.84307 14.9762 9.18597C15.3222 8.57688 15.7125 7.99514 16.143 7.44625C16.5768 8.00407 16.9699 8.59091 17.3185 9.20343ZM18.8764 13.3097C18.5579 14.2364 18.3814 15.228 18.3814 16.2331C18.3814 17.2464 18.5609 18.233 18.8852 19.1575C19.0769 18.2191 19.1772 17.2413 19.1772 16.2329C19.1772 15.2301 19.0738 14.253 18.8764 13.3097ZM4.13783 16.3126C4.13783 16.7901 4.5357 17.2675 5.09271 17.2675C5.64972 17.2675 6.04759 16.7901 6.04759 16.3126C6.04759 15.8352 5.64972 15.3578 5.09271 15.3578C4.61527 15.3578 4.13783 15.7556 4.13783 16.3126ZM26.1796 16.3126C26.1796 16.7901 26.5775 17.2675 27.1345 17.2675C27.6915 17.2675 28.0894 16.7901 28.0894 16.3126C28.0894 15.8352 27.6915 15.3578 27.1345 15.3578C26.6571 15.3578 26.1796 15.7556 26.1796 16.3126ZM22.5378 11.5566C21.3867 12.7077 20.6493 14.3497 20.6493 16.233C20.6493 18.1199 21.3892 19.6789 22.533 20.9044L22.8239 20.6329C21.7396 19.4712 21.0472 18.0064 21.0472 16.233C21.0472 14.4559 21.7421 12.9149 22.8191 11.838L22.5378 11.5566ZM23.3944 16.1533C23.3944 15.0758 23.8097 14.1603 24.4755 13.4944L24.7006 13.7195C24.0932 14.3269 23.7127 15.1619 23.7127 16.1533C23.7127 17.067 24.0946 17.9811 24.7006 18.5871L24.4755 18.8122C23.8084 18.1451 23.3944 17.1494 23.3944 16.1533ZM11.18 16.233C11.18 14.4559 10.4851 12.9149 9.4081 11.838L9.6894 11.5566C10.8405 12.7077 11.5779 14.3497 11.5779 16.233C11.5779 18.1199 10.838 19.6789 9.6942 20.9044L9.4033 20.6329C10.4876 19.4712 11.18 18.0064 11.18 16.233ZM7.52646 13.7195C8.13381 14.3269 8.5143 15.1619 8.5143 16.1533C8.5143 17.067 8.13249 17.9811 7.52646 18.5871L7.75152 18.8122C8.41866 18.1451 8.83259 17.1494 8.83259 16.1533C8.83259 15.0758 8.41735 14.1603 7.75152 13.4944L7.52646 13.7195ZM44.2428 30.5562C44.9589 30.5562 45.5955 29.9196 45.5955 29.2034C45.5955 28.4873 44.9589 27.8507 44.2428 27.8507C43.5266 27.8507 42.89 28.4873 42.89 29.2034C42.89 29.9196 43.5266 30.5562 44.2428 30.5562ZM62.6243 29.2034C62.6243 29.9196 61.9878 30.5562 61.2716 30.5562C60.3963 30.5562 59.9189 29.9196 59.9189 29.2034C59.9189 28.4873 60.5554 27.8507 61.2716 27.8507C61.9878 27.8507 62.6243 28.4873 62.6243 29.2034ZM78.1411 30.5562C78.8573 30.5562 79.4939 29.9196 79.4939 29.2034C79.4939 28.4873 78.8573 27.8507 78.1411 27.8507C77.4249 27.8507 76.7884 28.4873 76.7884 29.2034C76.7884 29.9196 77.4249 30.5562 78.1411 30.5562Z" fill="#A1BADC"/>
</svg>
