<svg width="29" height="32" viewBox="0 0 29 32" fill="none" xmlns="http://www.w3.org/2000/svg">
<g clip-path="url(#clip0_116_69)">
<circle cx="14.7307" cy="15.6077" r="13.4299" fill="white"/>
<mask id="mask0_116_69" style="mask-type:alpha" maskUnits="userSpaceOnUse" x="1" y="2" width="28" height="28">
<circle cx="14.7307" cy="15.6077" r="13.4299" fill="#D9D9D9"/>
</mask>
<g mask="url(#mask0_116_69)">
<path d="M17.5792 20.5085H12.0352V10.6191H17.5792V20.5085Z" fill="#FF5F00"/>
<path d="M12.3902 15.5629C12.3902 13.5568 13.3365 11.7698 14.8102 10.6182C13.7325 9.77607 12.3725 9.27344 10.8944 9.27344C7.39516 9.27344 4.55859 12.0893 4.55859 15.5629C4.55859 19.0364 7.39516 21.8523 10.8944 21.8523C12.3725 21.8523 13.7325 21.3497 14.8102 20.5076C13.3365 19.356 12.3902 17.569 12.3902 15.5629Z" fill="#EB001B"/>
<path d="M25.0567 15.5629C25.0567 19.0364 22.2201 21.8523 18.7209 21.8523C17.2428 21.8523 15.8827 21.3497 14.8047 20.5076C16.2788 19.356 17.225 17.569 17.225 15.5629C17.225 13.5568 16.2788 11.7698 14.8047 10.6182C15.8827 9.77607 17.2428 9.27344 18.7209 9.27344C22.2201 9.27344 25.0567 12.0893 25.0567 15.5629Z" fill="#F79E1B"/>
</g>
</g>
<defs>
<clipPath id="clip0_116_69">
<rect width="27.9891" height="31.1752" fill="white" transform="translate(0.738281)"/>
</clipPath>
</defs>
</svg>
