<svg width="170" height="43" viewBox="0 0 170 43" fill="none" xmlns="http://www.w3.org/2000/svg">
<path d="M123.493 16.3911L124.853 20.7625H122.108L123.42 16.3911H123.493ZM127.136 12.4082H117.956V15.8325C118.538 15.9296 119.024 16.0268 119.461 16.0753L116.45 25.7653C115.794 25.8382 115.163 25.9596 114.531 26.0811V29.5053H122.278V26.0811C121.744 25.9839 121.55 25.8868 121.04 25.8139L121.307 24.4782H125.727L126.14 25.8382C125.606 25.8868 125.12 25.9839 124.61 26.0811V29.5053H133.523V26.0811C132.891 25.9596 132.211 25.8382 131.507 25.7653L127.136 12.4082Z" fill="white"/>
<path d="M139.863 15.468L164.415 14.5938L167.16 17.1437L167.378 23.2638L164.634 25.7409L140.445 26.5909L137.531 24.3323L137.312 18.2123L139.863 15.468ZM147.658 18.9166C147.828 17.4109 147.124 16.7552 145.278 16.8037L141.441 16.9495L141.344 18.2123C141.684 18.2609 141.927 18.2852 142.145 18.3095L141.587 23.0695C141.392 23.0937 141.125 23.118 140.81 23.1909L140.713 24.478L144.744 24.3323C146.565 24.2595 147.294 23.8466 147.464 22.2195L147.488 22.098C147.585 21.1509 147.245 20.6166 146.687 20.4709C147.294 20.2038 147.61 19.7423 147.682 19.0138L147.658 18.9166ZM145.667 21.9523C145.594 22.6809 145.375 22.8752 144.55 22.8995L143.408 22.948L143.578 21.2966L144.768 21.248C145.424 21.2237 145.715 21.2723 145.667 21.8066V21.9523ZM143.724 19.9123L143.894 18.3095L145.254 18.2609C145.934 18.2366 145.958 18.4309 145.91 18.9895L145.885 19.1352C145.837 19.6695 145.497 19.8395 144.841 19.8638L143.724 19.9123ZM151.131 18.2852C149.382 18.358 148.484 19.0866 148.29 20.8352L148.217 21.588C148.022 23.5552 148.678 24.3566 150.645 24.2837H150.913C151.738 24.2595 152.637 24.0166 153.292 23.4823L153.39 22.2923L152.03 22.3409L151.932 22.5352C151.762 22.8995 151.447 22.9966 151.034 23.0209L150.621 23.0452C150.087 23.0695 149.747 22.8752 149.795 22.268L149.82 22.098L153.584 21.9766L153.73 20.6409C153.9 19.0138 153.195 18.2366 151.495 18.2852H151.131ZM152.2 20.7866L149.941 20.8595L149.99 20.398C150.038 19.8395 150.475 19.4995 151.058 19.4752H151.374C151.932 19.4509 152.321 19.6452 152.248 20.2037L152.2 20.7866ZM157.008 22.5837C156.498 22.608 156.474 22.4866 156.547 21.7095L156.79 19.4752L158.392 19.4266L158.514 18.1638L156.911 18.2123L157.057 16.6095C156.522 16.658 156.255 16.6823 155.551 16.8037L155.405 17.9209C155.381 18.1638 155.26 18.2609 155.017 18.2852L154.555 18.3095L154.434 19.5723L155.114 19.548L154.798 22.5352C154.677 23.5552 155.162 24.1137 156.037 24.0895H156.158C156.814 24.0652 157.664 23.8223 158.125 23.5066L158.174 22.5352C157.81 22.5595 157.518 22.5595 157.154 22.5837H157.008ZM159 19.8638C158.927 20.6409 159.242 21.1266 160.651 21.3209C162.06 21.5395 162.302 21.588 162.254 21.9523L162.23 22.0495C162.181 22.4623 161.841 22.6566 161.331 22.6809H161.015C160.724 22.6809 160.432 22.6809 160.117 22.4866L160.068 21.8552L158.781 21.9037L158.635 23.118C159.51 23.7737 160.311 23.8952 161.015 23.8709L161.428 23.8466C162.958 23.798 163.711 23.2395 163.857 21.9523L163.881 21.6123C163.954 20.8352 163.541 20.3737 162.254 20.1795C160.797 19.9366 160.505 20.0095 160.554 19.6209V19.548C160.602 19.208 160.991 19.0137 161.622 18.9895C161.89 18.9895 162.23 18.9895 162.521 19.0623L162.545 19.6937L163.954 19.6452L164.075 18.1638C163.371 17.9209 162.351 17.848 161.671 17.8723H161.477C159.947 17.9209 159.17 18.4066 159.048 19.5238L159 19.8638Z" fill="white"/>
<path d="M89.9771 16.3911L91.3371 20.7625H88.5928L89.9042 16.3911H89.9771ZM93.6199 12.4082H84.4399V15.8325C85.0228 15.9296 85.5085 16.0268 85.9456 16.0753L82.9342 25.7653C82.2785 25.8382 81.6471 25.9596 81.0156 26.0811V29.5053H88.7628V26.0811C88.2285 25.9839 88.0342 25.8868 87.5242 25.8139L87.7913 24.4782H92.2113L92.6242 25.8382C92.0899 25.8868 91.6042 25.9839 91.0942 26.0811V29.5053H100.007V26.0811C99.3756 25.9596 98.6956 25.8382 97.9913 25.7653L93.6199 12.4082Z" fill="white"/>
<path d="M65.8354 29.5053V26.0811C66.4911 25.9596 67.0254 25.8625 67.4626 25.8139V16.0996C66.8554 16.0268 66.2726 15.9296 65.7383 15.8325V12.4082H74.6511V15.8325C73.9468 16.0025 73.1454 16.0996 72.2469 16.1725V25.6925H76.1569L76.6911 23.4096H79.8726V29.4811H65.8354V29.5053Z" fill="white"/>
<path d="M106.396 15.8325L105.4 15.9782L107.391 20.1068H107.464L109.577 16.0268C109.213 15.9782 108.824 15.9053 108.411 15.8325V12.4082H115.697V15.8325C115.114 15.9539 114.556 16.0511 113.997 16.1482L109.553 23.7011V25.8139C110.136 25.8625 110.694 25.9596 111.253 26.0811V29.5053H103.117V26.0811C103.651 25.9839 104.186 25.8868 104.744 25.8139V23.8953L100.3 16.0753C99.8386 16.0268 99.3529 15.9296 98.8672 15.8325V12.4082H106.42V15.8325H106.396Z" fill="white"/>
<path fill-rule="evenodd" clip-rule="evenodd" d="M49.4453 12.4082V15.8325C50.1253 15.9539 50.6839 16.0511 51.1939 16.1239V25.8139C50.611 25.8868 50.0767 25.9839 49.5425 26.0811V29.5053H57.921V26.0811C57.3139 25.9596 56.6582 25.8382 56.0025 25.7653V24.0411H58.771C63.021 24.0411 64.6725 22.6325 64.721 19.0625V17.7753C64.721 13.9382 63.0696 12.4568 58.7467 12.4325H49.4453V12.4082ZM60.2039 18.6739C60.1796 19.8396 59.6453 20.3011 58.3825 20.3011H55.9782V16.3182H58.3825C59.6939 16.3182 60.2039 16.8039 60.2039 18.0182V18.6739Z" fill="white"/>
<path fill-rule="evenodd" clip-rule="evenodd" d="M131.604 13.3554H131.969C132.163 13.3554 132.26 13.4526 132.26 13.6226V13.6954C132.26 13.8654 132.163 13.9626 131.993 13.9626H131.604V13.3554ZM131.046 13.064V13.3311C131.119 13.3311 131.191 13.3554 131.264 13.3554V14.6183L131.046 14.6426V14.9097H131.799V14.6426H131.604V14.254H131.944C132.066 14.3997 132.139 14.5697 132.211 14.764V14.8854H132.77V14.6183C132.697 14.6183 132.576 14.594 132.527 14.594C132.479 14.424 132.381 14.2783 132.309 14.1811C132.503 14.1326 132.6 13.9626 132.6 13.6954V13.5983C132.6 13.2583 132.381 13.064 131.993 13.064H131.046ZM131.847 12.4811C132.794 12.4811 133.353 13.0154 133.353 14.0111C133.353 15.0069 132.794 15.5411 131.847 15.5411C130.9 15.5411 130.341 15.0069 130.341 14.0111C130.341 13.0154 130.9 12.4811 131.847 12.4811ZM131.847 12.2383C130.73 12.2383 130.074 12.894 130.074 14.0111C130.074 15.1283 130.73 15.8083 131.847 15.8083C132.964 15.8083 133.62 15.1526 133.62 14.0111C133.62 12.894 132.964 12.2383 131.847 12.2383Z" fill="white"/>
<path d="M44.7089 20.4227L34.9218 40.3856H25.6446L23.556 39.2199L21.4432 40.3856H12.1418L2.37891 20.4227L10.0046 1.55273H20.9575L23.556 4.19988L26.5675 1.55273H37.1075L44.7089 20.4227ZM32.0075 14.4242L28.2189 18.1884L30.0889 23.4584L33.7318 18.8199L32.0075 14.4242ZM17.0232 23.4342L18.8932 18.1642L15.0803 14.4242L13.356 18.7956L17.0232 23.4342ZM18.9903 30.4527L19.9375 33.367H21.5889L23.556 32.3227L25.5232 33.367H27.1746L28.1218 30.4527L26.0089 29.9184H21.1518L18.9903 30.4527ZM23.9689 10.3927V13.3313H23.1189V10.417L20.9575 8.57131L16.926 9.66416L15.4932 13.3313L19.5975 14.2784L18.3589 12.1656L19.0875 11.7284L20.9332 14.8613L17.2903 25.1827L18.7475 29.627L20.9089 29.0684L23.1189 27.7084V26.7127L19.1846 22.5599L19.476 21.7342L23.5318 22.9242L27.5875 21.7342L27.8789 22.5599L23.9446 26.7613V27.757L26.1546 29.0927L28.3403 29.6513L29.7732 25.207L26.1303 14.8856L27.976 11.7527L28.7046 12.1899L27.466 14.3027L31.5703 13.3556L30.1375 9.68845L26.106 8.59559L23.9689 10.3927Z" fill="white"/>
<path fill-rule="evenodd" clip-rule="evenodd" d="M61.4411 35.6005L62.3154 38.1505H60.5668L61.4168 35.6005H61.4411ZM62.1211 34.8477H59.984V35.4791C60.2997 35.5034 60.494 35.5277 60.6397 35.5277L59.1583 39.9234C58.9154 39.9234 58.6725 39.9477 58.4297 39.9962V40.6277H60.5911V39.9962C60.3725 39.9719 60.2754 39.9477 60.0811 39.9477L60.3968 38.9034H62.534L62.8983 39.9477C62.6797 39.9719 62.5097 39.9719 62.2911 39.9962V40.6277H64.6468V39.9962C64.404 39.9719 64.1368 39.9477 63.894 39.9234L62.1211 34.8477Z" fill="white"/>
<path fill-rule="evenodd" clip-rule="evenodd" d="M66.5891 34.8477H65.1805V35.4548C65.3748 35.4791 65.5448 35.5034 65.7391 35.5034V39.9719C65.5691 39.9719 65.3748 39.9962 65.1562 40.0205V40.6277H67.1963V40.0205C66.9777 39.9962 66.7834 39.9719 66.6134 39.9719V34.8477H66.5891Z" fill="white"/>
<path fill-rule="evenodd" clip-rule="evenodd" d="M69.2141 34.8477H67.8055V35.4548C67.9998 35.4791 68.1698 35.5034 68.3641 35.5034V39.9719C68.1941 39.9719 67.9998 39.9962 67.7812 40.0205V40.6277H69.8212V40.0205C69.6027 39.9962 69.4084 39.9719 69.2384 39.9719V34.8477H69.2141Z" fill="white"/>
<path fill-rule="evenodd" clip-rule="evenodd" d="M75.9151 39.0248C75.9151 39.7534 75.6723 40.0448 75.138 40.0448H75.0165C74.5794 40.0448 74.288 40.0448 73.8265 39.9719V37.3005C74.3365 36.9848 74.628 36.9119 75.0894 36.9119H75.2351C75.7451 36.9119 75.9151 37.2519 75.9151 38.0048V39.0248ZM73.8265 34.8477H72.418V35.4548C72.6123 35.4791 72.7823 35.5034 72.9765 35.5034V40.5791C73.9237 40.6519 74.5308 40.6762 75.308 40.6762H75.4294C76.2551 40.6762 76.7894 40.2391 76.7894 39.1705V37.5919C76.7894 36.6691 76.3037 36.2077 75.5994 36.2077H75.4537C74.7737 36.2077 74.458 36.3534 73.8508 36.6934V34.8477H73.8265Z" fill="white"/>
<path fill-rule="evenodd" clip-rule="evenodd" d="M80.7227 38.2713H78.4398V37.8099C78.4398 37.1785 78.8284 36.8627 79.4598 36.8627H79.7027C80.3098 36.8627 80.6984 37.1542 80.6984 37.7613V38.2713H80.7227ZM79.4598 36.2313C78.2456 36.2313 77.5898 36.8142 77.5898 37.9799V38.8785C77.5898 40.1413 78.1241 40.6999 79.4598 40.6999H79.7513C80.3827 40.6999 80.9898 40.5056 81.3784 40.0685V39.5099H80.6984L80.6741 39.6313C80.5284 39.9713 80.1884 40.0685 79.7998 40.0685H79.4598C78.8527 40.0685 78.4641 39.777 78.4641 39.1456V38.8542H81.4998V37.8827C81.4998 36.7656 80.9413 36.207 79.7513 36.207H79.4598V36.2313Z" fill="white"/>
<path fill-rule="evenodd" clip-rule="evenodd" d="M84.0522 39.9964C83.6151 39.9964 83.5179 39.8264 83.5179 39.1707V36.985H84.7808V36.3293H83.5179V35.0664C83.2508 35.0664 83.0808 35.0907 82.7408 35.1393V36.135C82.7408 36.2564 82.6922 36.305 82.5465 36.305H82.1094V36.9607H82.6437V39.5593C82.6437 40.3607 82.9594 40.7007 83.5908 40.7007H83.6879C84.1008 40.7007 84.5379 40.6036 84.9022 40.4336V39.9478C84.6108 39.9721 84.4165 39.9721 84.1251 39.9721H84.0522V39.9964Z" fill="white"/>
<path fill-rule="evenodd" clip-rule="evenodd" d="M85.6766 37.5441C85.6766 38.1755 85.9681 38.4427 87.1095 38.6613C88.2266 38.8798 88.4695 38.9527 88.4695 39.3413V39.4627C88.4695 39.9484 88.1781 40.1184 87.6195 40.1184H87.3523C87.1095 40.1184 86.5752 40.0698 86.3809 39.7784L86.3323 39.317H85.6523V40.2641C86.0409 40.7013 86.9152 40.7498 87.3523 40.7498H87.6681C88.7366 40.7498 89.2709 40.3612 89.2709 39.4384V39.2198C89.2709 38.5641 88.9066 38.3212 87.8623 38.1027C86.6966 37.8841 86.4295 37.8841 86.4295 37.447V37.3984C86.4295 37.0098 86.7452 36.8641 87.4009 36.8641C87.7409 36.8641 88.1052 36.8884 88.3966 37.0341L88.4695 37.5927H89.1738V36.597C88.6638 36.3541 87.8866 36.2812 87.4495 36.2812H87.3038C86.2109 36.2812 85.6766 36.6455 85.6766 37.3984V37.5441Z" fill="white"/>
<path fill-rule="evenodd" clip-rule="evenodd" d="M93.7166 40.0696C93.2066 40.0696 93.0609 39.9238 93.0609 39.4381V39.2924C93.0609 38.831 93.2309 38.6853 93.7409 38.6367C94.1295 38.5881 94.7609 38.5153 95.0766 38.491V39.4867C94.6638 39.851 94.2995 40.0939 93.8381 40.0939H93.7166V40.0696ZM95.9752 37.7381C95.9752 36.791 95.5624 36.2324 94.5909 36.2324H94.2752C93.8138 36.2324 93.0124 36.3296 92.4781 36.4753V37.5439H93.1338L93.1824 37.0339C93.4981 36.9367 93.9352 36.8881 94.2266 36.8881C94.8581 36.8881 95.1252 37.0824 95.1252 37.811V38.0296C94.5181 38.1024 94.0324 38.1267 93.4252 38.1996C92.7209 38.2967 92.2109 38.4424 92.2109 39.3896V39.5596C92.2109 40.5553 92.5752 40.7253 93.3766 40.7253H93.5224C94.2024 40.7253 94.6152 40.4581 95.1252 40.0696V40.6524H96.5824V40.0453C96.3152 40.021 96.1452 39.9967 95.9995 39.9967V37.7381H95.9752Z" fill="white"/>
<path fill-rule="evenodd" clip-rule="evenodd" d="M98.5266 36.3298H97.118V36.937C97.3123 36.9613 97.4823 36.9855 97.6766 36.9855V39.9484C97.5066 39.9484 97.3123 39.9727 97.0938 39.997V40.6041H99.1823V39.997C98.9152 39.9727 98.7209 39.9484 98.5509 39.9484V37.6655C98.9152 37.2284 99.2309 37.107 99.668 37.107C99.838 37.0827 100.057 37.0827 100.299 37.0827V36.2812H99.9352C99.3523 36.2812 98.988 36.597 98.5509 37.1313V36.3298H98.5266Z" fill="white"/>
<path fill-rule="evenodd" clip-rule="evenodd" d="M103.964 38.2713H101.681V37.8099C101.681 37.1785 102.07 36.8627 102.701 36.8627H102.944C103.551 36.8627 103.94 37.1542 103.94 37.7613V38.2713H103.964ZM102.725 36.2313C101.511 36.2313 100.855 36.8142 100.855 37.9799V38.8785C100.855 40.1413 101.39 40.6999 102.725 40.6999H103.017C103.648 40.6999 104.255 40.5056 104.644 40.0685V39.5099H103.94L103.915 39.6313C103.77 39.9713 103.43 40.0685 103.041 40.0685H102.701C102.094 40.0685 101.705 39.777 101.705 39.1456V38.8542H104.741V37.8827C104.741 36.7656 104.183 36.207 102.993 36.207H102.725V36.2313Z" fill="white"/>
<path fill-rule="evenodd" clip-rule="evenodd" d="M109.429 40.0707C108.773 40.0707 108.433 39.755 108.433 39.1478V37.8364C108.433 37.205 108.773 36.8892 109.429 36.8892H109.841C110.497 36.8892 110.837 37.205 110.837 37.8364V39.1478C110.837 39.755 110.497 40.0707 109.841 40.0707H109.429ZM109.841 40.7264C111.104 40.7264 111.663 40.1435 111.663 38.905V38.1035C111.663 36.865 111.104 36.2578 109.817 36.2578H109.429C108.141 36.2578 107.559 36.865 107.559 38.1035V38.905C107.559 40.1435 108.141 40.7264 109.429 40.7264H109.841Z" fill="white"/>
<path fill-rule="evenodd" clip-rule="evenodd" d="M116.837 39.9735V37.3992C116.837 36.5735 116.497 36.2578 115.793 36.2578H115.696C115.016 36.2578 114.433 36.6707 113.874 37.0835V36.355H112.466V36.9621C112.66 36.9864 112.83 37.0107 113.024 37.0107V39.9735C112.854 39.9735 112.66 39.9978 112.441 40.0221V40.6292H114.481V40.0221C114.263 39.9978 114.069 39.9735 113.899 39.9735V37.5692C114.384 37.2292 114.821 36.9621 115.307 36.9621H115.404C115.914 36.9621 116.011 37.1078 116.011 37.8364V40.6292H117.517V40.0221L116.837 39.9735Z" fill="white"/>
<path fill-rule="evenodd" clip-rule="evenodd" d="M118.633 40.6762C118.973 40.6762 119.143 40.5305 119.143 40.1905C119.143 39.8505 118.973 39.7048 118.633 39.7048C118.293 39.7048 118.123 39.8505 118.123 40.1905C118.099 40.5062 118.269 40.6762 118.633 40.6762ZM119.095 34.8477H118.148V35.6734L118.391 38.9034H118.876L119.119 35.6734V34.8477H119.095Z" fill="white"/>
</svg>
