<svg width="19" height="22" viewBox="0 0 19 22" fill="none" xmlns="http://www.w3.org/2000/svg">
<g clip-path="url(#clip0_37_175)">
<path d="M9.49424 1C12.9317 3.8608 16.8738 3.74194 18 3.74194C17.7536 20.012 15.9435 16.7661 9.49424 21.2903C3.05645 16.7661 1.2465 20.012 1 3.74194C2.1146 3.74194 6.05654 3.8608 9.49424 1Z" stroke="#FF4C4C" stroke-width="0.811891" stroke-miterlimit="10" stroke-linecap="round" stroke-linejoin="round"/>
<mask id="mask0_37_175" style="mask-type:luminance" maskUnits="userSpaceOnUse" x="4" y="5" width="11" height="12">
<path d="M14.7778 5.86914H4.22656V16.4203H14.7778V5.86914Z" fill="white"/>
</mask>
<g mask="url(#mask0_37_175)">
<path d="M14.2071 8.04674C14.0355 7.87505 13.7571 7.87505 13.5854 8.04674L8.06198 13.5702C7.89029 13.7418 7.61193 13.7418 7.44024 13.5702L5.41847 11.5484C5.24679 11.3767 4.96842 11.3767 4.79673 11.5484C4.62505 11.7201 4.62505 11.9985 4.79673 12.1701L6.82087 14.1906C7.33605 14.7048 8.17044 14.7045 8.68518 14.1898L14.2071 8.66847C14.3788 8.49679 14.3788 8.21842 14.2071 8.04674Z" fill="#FF4C4C"/>
</g>
</g>
<defs>
<clipPath id="clip0_37_175">
<rect width="19" height="22" fill="white"/>
</clipPath>
</defs>
</svg>
