<svg width="35" height="35" viewBox="0 0 35 35" fill="none" xmlns="http://www.w3.org/2000/svg">
<g clip-path="url(#clip0_116_790)">
<path d="M17.1542 0.658203L2.00781 9.40243C2.00781 12.5827 2.30965 15.3599 2.81547 17.8068C5.94126 32.927 17.1542 34.9553 17.1542 34.9553C17.1542 34.9553 28.367 32.927 31.4929 17.8068C31.9987 15.3599 32.3005 12.5827 32.3005 9.40243L17.1542 0.658203ZM17.162 31.9224C17.1597 31.9216 17.1566 31.9205 17.1542 31.9198V28.7264V17.8068H9.43528H6.10953C5.66273 15.8147 5.36538 13.5527 5.2793 10.9788L17.1541 4.12328H17.1542V7.5885V17.8068H24.8757H28.2C25.838 28.3507 19.2526 31.2559 17.162 31.9224Z" fill="white"/>
</g>
<defs>
<clipPath id="clip0_116_790">
<rect width="34.2971" height="34.2971" fill="white" transform="translate(0 0.658203)"/>
</clipPath>
</defs>
</svg>
