<svg width="53" height="53" viewBox="0 0 53 53" fill="none" xmlns="http://www.w3.org/2000/svg">
<g clip-path="url(#clip0_116_724)">
<path d="M26.5 53C41.1355 53 53 41.1355 53 26.5C53 11.8645 41.1355 0 26.5 0C11.8645 0 0 11.8645 0 26.5C0 41.1355 11.8645 53 26.5 53Z" fill="#F0F0F0"/>
<path d="M7.76165 45.2385C-2.58722 34.8895 -2.58722 18.1107 7.76165 7.76172C7.76093 7.76286 23.0436 26.5001 23.0436 26.5001L7.76165 45.2385Z" fill="black"/>
<path d="M23.045 26.4996L3.51615 13.3027C2.91068 14.3552 2.37675 15.4537 1.91797 16.5907L11.8046 26.4997L1.91828 36.4093C2.37665 37.5455 2.91006 38.6433 3.51511 39.695L23.045 26.4996Z" fill="#FFDA44"/>
<path d="M52.7777 23.0432H23.0448L7.76339 7.76172C6.11666 9.40845 4.68597 11.2708 3.51666 13.3029L16.6879 26.4997L3.51562 39.6948C4.68494 41.7275 6.11625 43.5904 7.76339 45.2376L23.0448 29.9562H52.7777C52.925 28.8248 53.002 27.6712 53.002 26.4997C53.002 25.3282 52.925 24.1746 52.7777 23.0432Z" fill="#6DA544"/>
<path d="M10.3672 47.5226C14.8359 50.9575 20.4295 53.001 26.5013 53.001C38.7451 53.001 49.0476 44.6969 52.0884 33.4141H24.4759L10.3672 47.5226Z" fill="#0052B4"/>
<path d="M52.0884 19.5869C49.0476 8.30413 38.7451 0 26.5013 0C20.4295 0 14.8359 2.0435 10.3672 5.47836L24.4757 19.5869H52.0884Z" fill="#D80027"/>
</g>
<defs>
<clipPath id="clip0_116_724">
<rect width="53" height="53" fill="white"/>
</clipPath>
</defs>
</svg>
