<svg width="100" height="15" viewBox="0 0 100 15" fill="none" xmlns="http://www.w3.org/2000/svg">
<path d="M7.42157 1.72129C7.60483 1.31014 7.6965 1.10456 7.82411 1.04125C7.93494 0.986249 8.06508 0.986249 8.17591 1.04125C8.30352 1.10456 8.39519 1.31014 8.57845 1.72129L10.0382 4.99619C10.0924 5.11774 10.1195 5.17851 10.1615 5.22505C10.1985 5.26623 10.2439 5.29917 10.2945 5.32171C10.3517 5.3472 10.4179 5.35419 10.5502 5.36815L14.1159 5.7445C14.5636 5.79174 14.7874 5.81536 14.8871 5.91716C14.9736 6.00557 15.0138 6.12939 14.9958 6.2518C14.975 6.39271 14.8078 6.54336 14.4734 6.84473L11.8099 9.2451C11.7111 9.33415 11.6616 9.37872 11.6303 9.43295C11.6026 9.481 11.5853 9.53428 11.5795 9.58937C11.5729 9.65167 11.5867 9.71675 11.6143 9.84697L12.3583 13.3544C12.4517 13.7948 12.4984 14.015 12.4324 14.1411C12.375 14.2509 12.2697 14.3273 12.1477 14.348C12.0073 14.3717 11.8123 14.2593 11.4224 14.0344L8.31642 12.243C8.20116 12.1765 8.14353 12.1433 8.08226 12.1303C8.02803 12.1188 7.97198 12.1188 7.91776 12.1303C7.85649 12.1433 7.79886 12.1765 7.68359 12.243L4.57767 14.0344C4.18773 14.2593 3.99276 14.3717 3.85232 14.348C3.73032 14.3273 3.625 14.2509 3.56766 14.1411C3.50164 14.015 3.54834 13.7948 3.64174 13.3544L4.38568 9.84697C4.41329 9.71675 4.4271 9.65167 4.42055 9.58937C4.41474 9.53428 4.39743 9.481 4.36972 9.43295C4.33841 9.37872 4.28899 9.33415 4.19014 9.2451L1.52662 6.84473C1.19223 6.54336 1.02503 6.39271 1.00424 6.2518C0.986189 6.12939 1.02641 6.00557 1.11297 5.91716C1.21262 5.81536 1.43645 5.79174 1.88411 5.7445L5.44983 5.36815C5.58217 5.35419 5.64833 5.3472 5.70555 5.32171C5.75618 5.29917 5.80151 5.26623 5.8386 5.22505C5.88052 5.17851 5.90761 5.11774 5.96179 4.99619L7.42157 1.72129Z" fill="#FFCB0F" stroke="black" stroke-width="0.158404" stroke-linecap="round" stroke-linejoin="round"/>
<path d="M28.4216 1.72129C28.6048 1.31014 28.6965 1.10456 28.8241 1.04125C28.9349 0.986249 29.0651 0.986249 29.1759 1.04125C29.3035 1.10456 29.3952 1.31014 29.5784 1.72129L31.0382 4.99619C31.0924 5.11774 31.1195 5.17851 31.1615 5.22505C31.1985 5.26623 31.2439 5.29917 31.2945 5.32171C31.3517 5.3472 31.4179 5.35419 31.5502 5.36815L35.1159 5.7445C35.5636 5.79174 35.7874 5.81536 35.8871 5.91716C35.9736 6.00557 36.0138 6.12939 35.9958 6.2518C35.975 6.39271 35.8078 6.54336 35.4734 6.84473L32.8099 9.2451C32.7111 9.33415 32.6616 9.37872 32.6303 9.43295C32.6026 9.481 32.5853 9.53428 32.5795 9.58937C32.5729 9.65167 32.5867 9.71675 32.6143 9.84697L33.3583 13.3544C33.4517 13.7948 33.4984 14.015 33.4324 14.1411C33.375 14.2509 33.2697 14.3273 33.1477 14.348C33.0073 14.3717 32.8123 14.2593 32.4224 14.0344L29.3164 12.243C29.2012 12.1765 29.1435 12.1433 29.0823 12.1303C29.028 12.1188 28.972 12.1188 28.9178 12.1303C28.8565 12.1433 28.7989 12.1765 28.6836 12.243L25.5777 14.0344C25.1877 14.2593 24.9928 14.3717 24.8523 14.348C24.7303 14.3273 24.625 14.2509 24.5677 14.1411C24.5016 14.015 24.5483 13.7948 24.6417 13.3544L25.3857 9.84697C25.4133 9.71675 25.4271 9.65167 25.4205 9.58937C25.4147 9.53428 25.3974 9.481 25.3697 9.43295C25.3384 9.37872 25.289 9.33415 25.1901 9.2451L22.5266 6.84473C22.1922 6.54336 22.025 6.39271 22.0042 6.2518C21.9862 6.12939 22.0264 6.00557 22.113 5.91716C22.2126 5.81536 22.4364 5.79174 22.8841 5.7445L26.4498 5.36815C26.5822 5.35419 26.6483 5.3472 26.7056 5.32171C26.7562 5.29917 26.8015 5.26623 26.8386 5.22505C26.8805 5.17851 26.9076 5.11774 26.9618 4.99619L28.4216 1.72129Z" fill="#FFCB0F" stroke="black" stroke-width="0.158404" stroke-linecap="round" stroke-linejoin="round"/>
<path d="M49.4216 1.72129C49.6048 1.31014 49.6965 1.10456 49.8241 1.04125C49.9349 0.986249 50.0651 0.986249 50.1759 1.04125C50.3035 1.10456 50.3952 1.31014 50.5784 1.72129L52.0382 4.99619C52.0924 5.11774 52.1195 5.17851 52.1615 5.22505C52.1985 5.26623 52.2439 5.29917 52.2945 5.32171C52.3517 5.3472 52.4179 5.35419 52.5502 5.36815L56.1159 5.7445C56.5636 5.79174 56.7874 5.81536 56.8871 5.91716C56.9736 6.00557 57.0138 6.12939 56.9958 6.2518C56.975 6.39271 56.8078 6.54336 56.4734 6.84473L53.8099 9.2451C53.7111 9.33415 53.6616 9.37872 53.6303 9.43295C53.6026 9.481 53.5853 9.53428 53.5795 9.58937C53.5729 9.65167 53.5867 9.71675 53.6143 9.84697L54.3583 13.3544C54.4517 13.7948 54.4984 14.015 54.4324 14.1411C54.375 14.2509 54.2697 14.3273 54.1477 14.348C54.0073 14.3717 53.8123 14.2593 53.4224 14.0344L50.3164 12.243C50.2012 12.1765 50.1435 12.1433 50.0823 12.1303C50.028 12.1188 49.972 12.1188 49.9178 12.1303C49.8565 12.1433 49.7989 12.1765 49.6836 12.243L46.5777 14.0344C46.1877 14.2593 45.9928 14.3717 45.8523 14.348C45.7303 14.3273 45.625 14.2509 45.5677 14.1411C45.5016 14.015 45.5483 13.7948 45.6417 13.3544L46.3857 9.84697C46.4133 9.71675 46.4271 9.65167 46.4205 9.58937C46.4147 9.53428 46.3974 9.481 46.3697 9.43295C46.3384 9.37872 46.289 9.33415 46.1901 9.2451L43.5266 6.84473C43.1922 6.54336 43.025 6.39271 43.0042 6.2518C42.9862 6.12939 43.0264 6.00557 43.113 5.91716C43.2126 5.81536 43.4364 5.79174 43.8841 5.7445L47.4498 5.36815C47.5822 5.35419 47.6483 5.3472 47.7056 5.32171C47.7562 5.29917 47.8015 5.26623 47.8386 5.22505C47.8805 5.17851 47.9076 5.11774 47.9618 4.99619L49.4216 1.72129Z" fill="#FFCB0F" stroke="black" stroke-width="0.158404" stroke-linecap="round" stroke-linejoin="round"/>
<path d="M70.4216 1.72129C70.6048 1.31014 70.6965 1.10456 70.8241 1.04125C70.9349 0.986249 71.0651 0.986249 71.1759 1.04125C71.3035 1.10456 71.3952 1.31014 71.5784 1.72129L73.0382 4.99619C73.0924 5.11774 73.1195 5.17851 73.1615 5.22505C73.1985 5.26623 73.2439 5.29917 73.2945 5.32171C73.3517 5.3472 73.4179 5.35419 73.5502 5.36815L77.1159 5.7445C77.5636 5.79174 77.7874 5.81536 77.8871 5.91716C77.9736 6.00557 78.0138 6.12939 77.9958 6.2518C77.975 6.39271 77.8078 6.54336 77.4734 6.84473L74.8099 9.2451C74.7111 9.33415 74.6616 9.37872 74.6303 9.43295C74.6026 9.481 74.5853 9.53428 74.5795 9.58937C74.5729 9.65167 74.5867 9.71675 74.6143 9.84697L75.3583 13.3544C75.4517 13.7948 75.4984 14.015 75.4324 14.1411C75.375 14.2509 75.2697 14.3273 75.1477 14.348C75.0073 14.3717 74.8123 14.2593 74.4224 14.0344L71.3164 12.243C71.2012 12.1765 71.1435 12.1433 71.0823 12.1303C71.028 12.1188 70.972 12.1188 70.9178 12.1303C70.8565 12.1433 70.7989 12.1765 70.6836 12.243L67.5777 14.0344C67.1877 14.2593 66.9928 14.3717 66.8523 14.348C66.7303 14.3273 66.625 14.2509 66.5677 14.1411C66.5016 14.015 66.5483 13.7948 66.6417 13.3544L67.3857 9.84697C67.4133 9.71675 67.4271 9.65167 67.4205 9.58937C67.4147 9.53428 67.3974 9.481 67.3697 9.43295C67.3384 9.37872 67.289 9.33415 67.1901 9.2451L64.5266 6.84473C64.1922 6.54336 64.025 6.39271 64.0042 6.2518C63.9862 6.12939 64.0264 6.00557 64.113 5.91716C64.2126 5.81536 64.4364 5.79174 64.8841 5.7445L68.4498 5.36815C68.5822 5.35419 68.6483 5.3472 68.7056 5.32171C68.7562 5.29917 68.8015 5.26623 68.8386 5.22505C68.8805 5.17851 68.9076 5.11774 68.9618 4.99619L70.4216 1.72129Z" fill="#FFCB0F" stroke="black" stroke-width="0.158404" stroke-linecap="round" stroke-linejoin="round"/>
<path d="M91.4216 1.72129C91.6048 1.31014 91.6965 1.10456 91.8241 1.04125C91.9349 0.986249 92.0651 0.986249 92.1759 1.04125C92.3035 1.10456 92.3952 1.31014 92.5784 1.72129L94.0382 4.99619C94.0924 5.11774 94.1195 5.17851 94.1615 5.22505C94.1985 5.26623 94.2439 5.29917 94.2945 5.32171C94.3517 5.3472 94.4179 5.35419 94.5502 5.36815L98.1159 5.7445C98.5636 5.79174 98.7874 5.81536 98.8871 5.91716C98.9736 6.00557 99.0138 6.12939 98.9958 6.2518C98.975 6.39271 98.8078 6.54336 98.4734 6.84473L95.8099 9.2451C95.7111 9.33415 95.6616 9.37872 95.6303 9.43295C95.6026 9.481 95.5853 9.53428 95.5795 9.58937C95.5729 9.65167 95.5867 9.71675 95.6143 9.84697L96.3583 13.3544C96.4517 13.7948 96.4984 14.015 96.4324 14.1411C96.375 14.2509 96.2697 14.3273 96.1477 14.348C96.0073 14.3717 95.8123 14.2593 95.4224 14.0344L92.3164 12.243C92.2012 12.1765 92.1435 12.1433 92.0823 12.1303C92.028 12.1188 91.972 12.1188 91.9178 12.1303C91.8565 12.1433 91.7989 12.1765 91.6836 12.243L88.5777 14.0344C88.1877 14.2593 87.9928 14.3717 87.8523 14.348C87.7303 14.3273 87.625 14.2509 87.5677 14.1411C87.5016 14.015 87.5483 13.7948 87.6417 13.3544L88.3857 9.84697C88.4133 9.71675 88.4271 9.65167 88.4205 9.58937C88.4147 9.53428 88.3974 9.481 88.3697 9.43295C88.3384 9.37872 88.289 9.33415 88.1901 9.2451L85.5266 6.84473C85.1922 6.54336 85.025 6.39271 85.0042 6.2518C84.9862 6.12939 85.0264 6.00557 85.113 5.91716C85.2126 5.81536 85.4364 5.79174 85.8841 5.7445L89.4498 5.36815C89.5822 5.35419 89.6483 5.3472 89.7056 5.32171C89.7562 5.29917 89.8015 5.26623 89.8386 5.22505C89.8805 5.17851 89.9076 5.11774 89.9618 4.99619L91.4216 1.72129Z" fill="#FFCB0F" stroke="black" stroke-width="0.158404" stroke-linecap="round" stroke-linejoin="round"/>
</svg>
