<svg width="28" height="28" viewBox="0 0 28 28" fill="none" xmlns="http://www.w3.org/2000/svg">
<circle cx="14.0108" cy="13.6299" r="13.4053" fill="#0E4595"/>
<mask id="mask0_116_88" style="mask-type:alpha" maskUnits="userSpaceOnUse" x="2" y="1" width="24" height="25">
<circle cx="14.0106" cy="13.163" r="11.8466" fill="#0E4595"/>
</mask>
<g mask="url(#mask0_116_88)">
<path d="M10.6523 16.5867L11.8231 9.7168H13.6956L12.5241 16.5867H10.6523Z" fill="white"/>
<path d="M19.2906 9.86471C18.9196 9.72553 18.3383 9.57617 17.6123 9.57617C15.7621 9.57617 14.4588 10.5079 14.4477 11.8433C14.4373 12.8304 15.3781 13.3811 16.0884 13.7097C16.8172 14.0464 17.0623 14.2612 17.0588 14.5619C17.0542 15.0224 16.4768 15.2328 15.9386 15.2328C15.1891 15.2328 14.7909 15.1286 14.176 14.8721L13.9347 14.7629L13.6719 16.3008C14.1092 16.4926 14.918 16.6588 15.7577 16.6674C17.726 16.6674 19.0039 15.7463 19.0184 14.3203C19.0254 13.5388 18.5266 12.944 17.4463 12.4538C16.7917 12.136 16.3909 11.9239 16.3952 11.6021C16.3952 11.3165 16.7344 11.0112 17.4675 11.0112C18.0798 11.0017 18.5234 11.1352 18.869 11.2744L19.0368 11.3537L19.2906 9.86471Z" fill="white"/>
<path d="M24.1107 9.7168H22.6638C22.2156 9.7168 21.8802 9.83913 21.6833 10.2865L18.9023 16.5823H20.8686C20.8686 16.5823 21.1902 15.7358 21.2629 15.5499C21.4777 15.5499 23.3879 15.5528 23.661 15.5528C23.717 15.7933 23.8888 16.5823 23.8888 16.5823H25.6263L24.1107 9.7168ZM21.8151 14.1528C21.9699 13.757 22.5611 12.2324 22.5611 12.2324C22.55 12.2507 22.7148 11.8347 22.8094 11.5767L22.936 12.169C22.936 12.169 23.2945 13.8089 23.3694 14.1527H21.8151V14.1528Z" fill="white"/>
<path d="M2.50048 9.7168L2.47656 9.85977C3.21671 10.0389 3.87779 10.2982 4.45657 10.6208L6.11807 16.5757L8.09924 16.5734L11.0472 9.7168H9.06367L7.23041 14.4016L7.03507 13.4495C7.02604 13.4205 7.01625 13.3913 7.00622 13.3621L6.36872 10.2968C6.25537 9.86178 5.9266 9.73196 5.51991 9.7168H2.50048Z" fill="white"/>
</g>
</svg>
