<svg width="35" height="35" viewBox="0 0 35 35" fill="none" xmlns="http://www.w3.org/2000/svg">
<path fill-rule="evenodd" clip-rule="evenodd" d="M12.9008 4.15039C9.81188 4.22333 6.874 5.50165 4.71513 7.7121C2.55626 9.92256 1.34766 12.8898 1.34766 15.9796C1.34766 19.0694 2.55626 22.0366 4.71513 24.2471C6.874 26.4575 9.81188 27.7359 12.9008 27.8088H13.4285V18.4299C13.4285 17.7307 13.9627 16.8337 14.6684 16.8337H24.6937C24.6937 16.4446 24.7333 16.1742 24.7333 15.9631C24.7177 12.8316 23.4654 9.83305 21.2492 7.62055C19.033 5.40805 16.0324 4.16079 12.9008 4.15039ZM22.3457 14.9672H19.2985C19.2406 12.5107 18.67 10.0934 17.6233 7.87031C18.905 8.60827 19.9983 9.63305 20.8177 10.8643C21.637 12.0956 22.16 13.4999 22.3457 14.9672ZM11.5487 7.19096V14.9672H8.84452C9.04899 11.2604 10.2164 8.332 11.5487 7.19096ZM11.5487 16.992V24.7616C10.2296 23.6206 9.04899 20.7053 8.84452 16.992H11.5487ZM14.2529 14.9672V7.19096C15.572 8.332 16.7592 11.2604 16.9571 14.9672H14.2529ZM8.17177 7.87031C7.14303 10.0993 6.57544 12.5133 6.50309 14.9672H3.43613C3.62131 13.4981 4.14554 12.0922 4.96742 10.8605C5.78929 9.62886 6.8863 8.60517 8.17177 7.87031ZM3.44273 17.3284H6.50968C6.56624 19.7772 7.1323 22.1875 8.17177 24.4055C6.89064 23.671 5.79699 22.6499 4.97653 21.422C4.15607 20.1942 3.63109 18.7931 3.44273 17.3284Z" fill="white"/>
<path fill-rule="evenodd" clip-rule="evenodd" d="M31.3278 18.8398H16.9692C16.5319 18.8398 16.1125 19.0136 15.8033 19.3228C15.494 19.632 15.3203 20.0514 15.3203 20.4887V28.5024C15.3203 28.9397 15.494 29.3591 15.8033 29.6683C16.1125 29.9776 16.5319 30.1513 16.9692 30.1513H31.3278C31.7651 30.1513 32.1846 29.9776 32.4938 29.6683C32.803 29.3591 32.9767 28.9397 32.9767 28.5024V20.4887C32.9767 20.0514 32.803 19.632 32.4938 19.3228C32.1846 19.0136 31.7651 18.8398 31.3278 18.8398ZM18.9017 28.5024C18.9087 28.2495 18.8659 27.9976 18.7755 27.7613C18.6852 27.5249 18.5491 27.3087 18.3752 27.1249C18.2012 26.9412 17.9927 26.7935 17.7617 26.6903C17.5306 26.5872 17.2815 26.5306 17.0286 26.5237H16.9758V22.4278C17.4862 22.4403 17.9807 22.2503 18.3514 21.8993C18.7222 21.5484 18.939 21.065 18.9545 20.5547V20.5085H29.3821C29.3821 21.013 29.5807 21.4973 29.9349 21.8565C30.2892 22.2156 30.7706 22.4209 31.2751 22.4278H31.3278V26.5501C31.074 26.544 30.8215 26.5879 30.5847 26.6794C30.3479 26.7709 30.1314 26.9081 29.9477 27.0833C29.7639 27.2585 29.6165 27.4681 29.5138 27.7003C29.4111 27.9325 29.3551 28.1826 29.3492 28.4364V28.4958L18.9017 28.5024Z" fill="white"/>
<path d="M24.1452 27.1223C25.6751 27.1223 26.9153 25.8821 26.9153 24.3522C26.9153 22.8223 25.6751 21.582 24.1452 21.582C22.6152 21.582 21.375 22.8223 21.375 24.3522C21.375 25.8821 22.6152 27.1223 24.1452 27.1223Z" fill="white"/>
</svg>
